<?xml version="1.0" encoding="UTF-8"?>
<svg id="Layer_1" xmlns="http://www.w3.org/2000/svg" version="1.1" viewBox="0 0 1533.9 287.3">
  <!-- Generator: Adobe Illustrator 30.1.0, SVG Export Plug-In . SVG Version: 2.1.1 Build 136)  -->
  <defs>
    <style>
      .st0 {
        fill: #4ebb98;
      }

      .st1 {
        fill: #4cbd99;
      }

      .st2 {
        fill: #0aa2ae;
      }

      .st3 {
        fill: #fff;
      }
    </style>
  </defs>
  <g>
    <path class="st3" d="M677.8,222.4c-8.5,0-17.1.4-25.5-.1-7.1-.5-9.8,2.4-10.9,9.2-2.1,13.9-5.3,27.6-7.5,41.5-.9,6.1-3.5,8.2-9.6,8.1-13.1-.3-26.2-.3-39.3,0-6.9.2-9-1.7-7.7-9,6.8-37.4,13.1-74.8,19.5-112.2,1.8-10.3,3.3-20.7,5.6-30.9,8.1-36.2,24.2-51.5,61-56.5,26.7-3.7,53.5-4.1,80.3-.2,29.6,4.3,48.3,25.7,49.4,55.7.6,16-2.3,31.3-8.5,46-10,23.8-27.9,38.1-53.1,43.6-17.7,3.9-35.7,4.6-53.7,4.8h0ZM674.2,196.7v-.5c5.6,0,11.1.3,16.7,0,18.3-1,30.7-10,36.3-27.7,4.6-14.4,7.8-29.1,7.1-44.4-.8-16.9-7.6-24.2-24.4-26.1-28.9-3.2-41.9,6.1-48.9,34.3-3.9,15.9-6.9,32-9,48.3-2.3,18-4.5,16.2,14.3,16.1h7.9Z"/>
    <path class="st3" d="M496.8,222.2c-19,0-38,.1-57,0-4.9,0-9.8-.9-14.6-1.9-25.2-5.4-37.6-18.9-37.7-40.7,0-24.1,14.8-43,38.2-48.2,16.8-3.7,33.9-2.9,50.9-3.1,12.1-.1,24.3-.3,36.4,0,5.7.2,7.5-2.5,7.7-7.5.6-11.4-5.7-19.4-17.2-21.3-16.3-2.6-32.7-.5-49.1-1.1-4.6,0-9.2,0-13.8-.3-16.6-1.2-22.7-10.4-17.8-26.1,1.2-3.9,4-4,6.8-4,35.4,0,70.9-1,106,3.9,32.4,4.5,47.5,23.5,43.5,56.1-3.6,29.9-9.9,59.4-14.8,89.1-1,6.2-5.4,5.7-9.6,5.7h-58v-.6h0ZM485.1,197.6v-.4c5.9,0,11.8-.2,17.6,0,4.3.2,6.7-1.5,7.4-5.9,1.7-11.3,3.6-22.6,5.3-33.9.5-3.1.2-6.3-4-6.2-17.6.3-35.4-1.5-52.6,3-9.5,2.5-14.5,13.2-13.6,25.6.7,9.7,5.3,14.4,16.5,15.9,7.7,1,15.6,1.2,23.4,1.7v.2h0Z"/>
    <path class="st3" d="M987.5,223.5c-14.8,0-29.5-.4-44.1-2.8-27-4.4-43.1-19.5-47.3-46.6-4.2-26.6,1.8-51.6,17.4-73.6,12.4-17.4,30.8-25,51.2-28,22.8-3.3,45.6-3.2,68.6-1.2,49.7,4.2,69.4,43.4,59.3,86.8-9,38.7-33.9,59.9-73.6,63.8-10.4,1-20.9,1.1-31.4,1.6h-.1ZM1035.3,133.4c-.5-10.8.5-21.6-9.2-29.1-16.3-12.7-48.3-7.1-59.2,10.5-7.1,11.4-9.9,24-11.8,37.1-5.2,37,7.1,49.2,44,44.6,13.3-1.7,22.3-8.4,27.6-20.5,6-13.7,8.1-28.2,8.5-42.5h0Z"/>
    <path class="st3" d="M828.9,223c-6.5,0-13.1-.5-19.6.1-9.1.9-10.4-2.9-8.8-10.8,5.4-27.6,10.4-55.3,15.4-83,4.8-26.4,9-52.9,14.4-79.2C836.8,17.8,856.4.9,886.6,0c11.2-.3,11.8.3,9.8,11.4-9.2,51.6-18.4,103.1-27.5,154.7-2.8,15.8-5.4,31.6-7.7,47.5-1,6.6-3.4,9.9-10.7,9.4-7.2-.6-14.4-.1-21.6-.1v.2h0Z"/>
    <path class="st3" d="M1221,69.3h28.5c6.7,0,8.3,2.5,4.7,8.3-6.7,10.7-15.8,18.3-28.5,20.7-1.6.3-3.2.8-4.8.8-25.2-.7-36.6,14.3-42.7,36.4-6.9,25.1-9.4,50.8-13.4,76.4-1.3,8.5-4,11.8-12.9,11.3-13.1-.7-26.2-.2-39.3,0-4.3,0-8.4-.2-7.2-6.2,6.6-32.4,9.6-65.4,18.3-97.4,8-29.4,28.1-43.5,57.2-47.4,13.4-1.8,26.8-2.1,40.2-2.7v-.2h0Z"/>
    <path class="st3" d="M1324.5,68.3c18,0,17.6,0,13.9,17.3-5.7,26.9-10.8,53.9-16.2,80.8-.6,3.2-1.1,6.4-1.9,9.6-8.5,37.7-27.6,50.7-66.1,45.5-4.4-.6-5.6-2.4-4.8-6.4,7.4-37.9,14.3-75.9,22.3-113.6,4.1-19.2,24.4-35.4,52.7-33.2h0Z"/>
    <path class="st3" d="M203.9,167.6c6.1-4.1,6.5-8.6,8.2-12.3,12.4-27.1,24.5-54.4,36.9-81.5,19.1-42,53-61.8,98-64.3,13.4-.7,26.9-.7,40.3-.7,11.7,0,12,.5,9.8,11.7-11.8,61.5-23.6,123-35.4,184.5q-3.5,18.4-22.5,18.4c-11.5,0-23-.3-34.4.3-7.5.4-9.1-2.3-7.3-9.2,9.7-39.2,17.4-78.7,24.7-118.4,1.2-6.8,2.1-13.6,3.7-20.3,1.9-8-1.7-9.6-8.8-9.3-10.9.5-18.4,5.9-24.5,14.3-13.9,18.9-23.4,40.2-32.9,61.4-10.9,24.2-21.4,48.6-31.6,73.1-2.5,6.1-5.7,8.5-12.4,8.3-22.6-.4-45.3-.4-67.9.1-8.5.2-10.6-2.3-9.8-10.7,4.5-46.7,8.2-93.4,12.6-140.1.9-9.2-2.5-11.3-10.7-11.5-12.9-.2-21.6,4.3-26.9,16.8-18.9,44.7-35.3,90.4-52.7,135.7-2.6,6.8-5.8,9.9-13.4,9.6-13.1-.6-26.2-.3-39.4,0-6.7.2-9.2-1.6-6.4-8.5,21.4-51.8,40.8-104.4,63.5-155.7,10.9-24.6,30-38.7,56.1-44.9,29.1-6.9,58.6-6.2,88.1-6.2,7.5,0,6.4,5.2,6.1,9.6-1.6,24.9-3.2,49.7-5.1,74.6-1.8,24.5-3.9,48.9-6,75.3Z"/>
  </g>
  <path class="st2" d="M1530.5,67.9h-27.3c-4.7,0-12.4,3.8-17.3,8.5l-38.1,36.7-22.2-36.7c-.5-.8-1.1-1.6-1.7-2.3-.5-.6-1.1-1.2-1.8-1.7-3-2.6-6.9-4.4-10.1-4.4h-44.4c-3.1,0-4.8,1.7-4.8,4.2s.5,2.7,1.4,4.3l32.4,53.5,12.4,20.6-50.9,49-14.7,14.1c-.9.9-1.7,1.7-2.2,2.5-2.5,3.5-1.9,6,1.9,6h27.3c4.7,0,12.4-3.8,17.3-8.5l37.6-36.2,21.9,36.2c2.8,4.7,8.9,8.5,13.6,8.5h44.4c4.7,0,6.2-3.8,3.4-8.5l-44.5-73.6,66.1-63.6c4.9-4.7,5-8.5.3-8.5h0Z"/>
  <g>
    <path class="st0" d="M671.8,271.1c-3.9,0-4.5-.5-4-3.4l2.5-15.6c.4-2.4,1-3.9,6.3-4.6,4-.6,10.1-1,14.6-1s1.7.3,1.4,2.1c-.2,1.4-.5,2.2-2,2.2h-.7c-3.1,0-7,.3-8.5.6-.7.2-1.3.5-1.4,1.6l-2.4,14.9c-.4,2.9-1,3.4-4.7,3.4h-1v-.2Z"/>
    <path class="st0" d="M698.8,259c1.3-8.1,4.7-12.7,20-12.7s17.5,1.8,16,11c-.4,3.1-.9,3.6-5.6,3.6h-19.2c-.8,0-1.5.2-1.7,1.3-.7,5,3.9,5.2,10.4,5.2s8.9-.5,10.3-.7c1.4-.2,2,0,1.6,1.7-.2,1.6-.5,1.8-2.2,2.2-.9.2-5.9.8-12.3.8-15.1,0-18.8-3.7-17.4-12.5h.1ZM723.1,257.3c.9,0,1.4-.2,1.7-1.4.7-4.3-1-6.2-6.6-6.2s-7.8,1.5-8.6,6.2c-.2,1.2.3,1.4,1.2,1.4h12.3Z"/>
    <path class="st0" d="M746.6,258.9c1.3-8.3,5.8-12.7,20.5-12.6,6.9,0,10.7.7,11.6.8,1.6.3,1.7.5,1.5,2.2-.3,1.7-.8,2-2.2,1.7-1.4-.2-5.9-.7-9.5-.7-8.4,0-10.7,2.3-11.7,8.5-1,6.3.5,8.6,8.9,8.6s8.3-.5,9.8-.7,1.8,0,1.6,1.7c-.2,1.6-.5,1.8-2.2,2.2-.9.2-5,.8-11.9.8-14.8.1-17.8-4.3-16.5-12.6h0,.2Z"/>
    <path class="st0" d="M794.3,271.1c-3.9,0-4.5-.5-4-3.4l2.5-15.6c.4-2.4,1-3.9,6.3-4.6,4-.6,10.1-1,14.6-1s1.7.3,1.4,2.1c-.2,1.4-.5,2.2-2,2.2h-.7c-3.1,0-7,.3-8.5.6-.7.2-1.3.5-1.4,1.6l-2.4,14.9c-.4,2.9-1,3.4-4.7,3.4h-1v-.2Z"/>
    <path class="st0" d="M833,260.6c-.8,5.8,1,7.4,8.3,7.4s9.7-2.1,10.4-7.5l1.8-11.9c.2-1.2,1.2-1.6,3-1.6s2.7.4,2.5,1.7l-1.7,11.5c-1.2,7.4-3.9,11.5-18.6,11.5s-16.5-3.7-15.3-11.6l1.5-9.7c.5-2.9,1.1-3.4,4.8-3.4h1c3.9,0,4.5.5,4,3.4l-1.6,10.3h-.1Z"/>
    <path class="st0" d="M898,263.1l3.3-20.7c.4-2.9,1.1-3.4,4.8-3.4h1c3.9,0,4.4.5,4,3.4l-.5,3c-.2,1.1,0,1.6,1.4,1.6h9.7c1.4,0,1.6.5,1.3,1.8-.2,1.4-.4,1.7-1.8,1.7h-9.7c-1.3,0-1.7.5-2,1.6l-1.7,11.1c-.6,4,1.7,4.2,5.1,4.2s5.5-.3,7.3-.5c1.4-.1,1.7,0,1.5,1.7-.2,1.6-.5,1.8-2.1,2.2-1.3.2-4.8.6-10,.6-9.6,0-12.7-2.2-11.8-8.3h.2Z"/>
    <path class="st1" d="M871.5,267.8l2.6-16.5c.5-2.7,1.1-3.3,4.6-3.3h.9c3.7,0,4.3.5,3.8,3.3l-2.6,16.5c-.4,2.7-1,3.2-4.5,3.2h-1c-3.7,0-4.3-.5-3.9-3.2h.1ZM881.3,244.4h-3c-3.4,0-4.1,0-3.6-2.9s1.1-2.9,4.6-2.9h3c3.6,0,4.3,0,3.9,2.9-.5,2.9-1.3,2.9-4.8,2.9h-.1Z"/>
    <path class="st0" d="M963.1,247.5c2.4.9,2.9.8,6.2,0,3.1-.8,6.4-1.2,10-1.2,11.8,0,15.4,2.5,14.4,9.2l-1.8,12c-.4,2.9-1,3.4-4.7,3.4h-1c-3.9,0-4.5-.5-4-3.4l2-12.1c.7-4.8-1.5-5.5-5.6-5.5s-4.8.3-6.3.6c-1,.2-1.5.6-1.7,1.7l-2.5,15.3c-.4,2.9-1,3.4-4.7,3.4h-1c-3.9,0-4.5-.5-4-3.4l2-12.3c.7-4.6-1.6-5.4-5.6-5.4s-4.8.3-6.3.6c-1,.2-1.5.6-1.7,1.7l-2.5,15.3c-.4,2.9-1,3.4-4.7,3.4h-1c-3.9,0-4.5-.5-4-3.4l2.7-16.3c.4-2.4.9-3.2,6.2-4,3.1-.5,8.3-.9,12.8-.9s6.1.6,7.6,1.1l-.3.2h-.5Z"/>
    <path class="st0" d="M1006.4,259c1.3-8.1,4.7-12.7,20-12.7s17.5,1.8,16,11c-.4,3.1-.9,3.6-5.6,3.6h-19.2c-.8,0-1.5.2-1.7,1.3-.7,5,3.9,5.2,10.4,5.2s8.9-.5,10.3-.7,1.8,0,1.6,1.7c-.2,1.6-.5,1.8-2.2,2.2-.9.2-5.9.8-12.3.8-15.1,0-18.8-3.7-17.4-12.5h0,0ZM1030.8,257.3c.9,0,1.4-.2,1.7-1.4.7-4.3-1-6.2-6.6-6.2s-7.8,1.5-8.6,6.2c-.2,1.2.3,1.4,1.2,1.4h12.3Z"/>
    <path class="st0" d="M1064.1,267.7c-.4,2.9-1,3.4-4.7,3.4h-1c-3.9,0-4.4-.6-4-3.4l2.7-16.3c.4-2.4.9-3.2,6.2-4,3.3-.5,8.9-.9,13.6-.9,11,0,14.7,2.7,13.6,9.2l-1.8,12c-.4,2.9-1,3.4-4.7,3.4h-1c-4,0-4.5-.6-4.1-3.4l2-12.1c.7-4.8-1.6-5.5-6-5.5s-4.6.2-6.2.6c-1,.2-1.6.6-1.7,1.7l-2.5,15.3h-.4Z"/>
    <path class="st0" d="M1104.1,263.1l3.3-20.7c.4-2.9,1.1-3.4,4.8-3.4h1c3.9,0,4.4.5,4,3.4l-.5,3c-.2,1.1,0,1.6,1.4,1.6h9.7c1.4,0,1.6.5,1.3,1.8-.2,1.4-.4,1.7-1.8,1.7h-9.7c-1.3,0-1.7.5-2,1.6l-1.7,11.1c-.6,4,1.7,4.2,5.1,4.2s5.5-.3,7.3-.5c1.4-.1,1.7,0,1.5,1.7-.2,1.6-.5,1.8-2.1,2.2-1.3.2-4.8.6-10,.6-9.6,0-12.7-2.2-11.8-8.3h.2Z"/>
    <path class="st0" d="M1160.4,258.9c1.3-8.3,5.8-12.7,20.5-12.6,6.9,0,10.7.7,11.6.8,1.6.3,1.7.5,1.5,2.2-.3,1.7-.8,2-2.2,1.7-1.4-.2-5.9-.7-9.5-.7-8.4,0-10.7,2.3-11.7,8.5-1,6.3.5,8.6,8.9,8.6s8.3-.5,9.8-.7,2,0,1.6,1.7c-.2,1.6-.5,1.8-2.2,2.2-.9.2-5,.8-11.9.8-14.8.1-17.8-4.3-16.5-12.6h0,.2Z"/>
    <path class="st0" d="M1203.8,259c1.1-7.1,3.7-12.7,20.4-12.7s17.5,5.6,16.3,12.7c-1.1,7-3.7,12.6-20.3,12.6s-17.6-5.6-16.4-12.6ZM1230.3,259c1-6,.9-9.3-6.6-9.3s-8.6,3.3-9.7,9.3c-.9,6-.8,9.2,6.7,9.2s8.6-3.3,9.5-9.2h0Z"/>
    <path class="st0" d="M1282.3,247.5c2.4.9,2.9.8,6.2,0,3.1-.8,6.4-1.2,10-1.2,11.8,0,15.4,2.5,14.4,9.2l-1.8,12c-.4,2.9-1,3.4-4.7,3.4h-1c-3.9,0-4.5-.5-4-3.4l2-12.1c.7-4.8-1.5-5.5-5.6-5.5s-4.8.3-6.3.6c-1,.2-1.5.6-1.7,1.7l-2.5,15.3c-.4,2.9-1,3.4-4.7,3.4h-1c-3.9,0-4.5-.5-4-3.4l2-12.3c.7-4.6-1.6-5.4-5.6-5.4s-4.8.3-6.3.6c-1,.2-1.5.6-1.7,1.7l-2.5,15.3c-.4,2.9-1,3.4-4.7,3.4h-1c-3.9,0-4.5-.5-4-3.4l2.7-16.3c.4-2.4.9-3.2,6.2-4,3.1-.5,8.3-.9,12.8-.9s6.1.6,7.6,1.1l-.3.2h-.5Z"/>
    <path class="st0" d="M1324.2,277.5l4.2-26.3c.4-2.4,1-3.4,6-4.1,2.9-.4,7.4-.7,12-.7,14.9,0,17.5,3.9,16.1,12.6s-4.8,12.6-19.4,12.6-4.8-.2-6.6-.3c-.8,0-1.4.1-1.6,1.3l-.8,4.9c-.4,2.9-1.1,3.4-4.8,3.4h-1c-3.9,0-4.4-.5-4-3.4h0ZM1352.3,259c1.2-7.7-.6-9.2-6.5-9.2s-5.6.4-6.3.5-1.3.3-1.4,1.3l-2.4,14.7c0,1,.4,1.2,1,1.4.5.1,3.1.4,6.1.4,5.9,0,8.1-1.5,9.3-9.2h.2Z"/>
    <path class="st0" d="M1373.7,263.7c1-6.5,7.8-6.9,17.1-6.9h7.1c.7,0,1.5-.2,1.7-1.4l.2-1c.6-3.9-2.1-4.1-7.5-4.1s-10.9.8-12.1.9c-1.3.2-1.8-.1-1.5-1.8.2-1.6.5-2,2.1-2.2,1.1-.2,7.5-.8,14.5-.8s9.3.5,11.8,1.7c2.5,1.3,3,3.4,2.5,6.2l-2,12.5c-.4,2.4-1,3.4-6.2,4.2-3.1.4-8.6.7-12.8.7-14.1,0-15.8-2.4-14.9-8h0,0ZM1395.8,267.8c1-.2,2-.5,2.1-2l.7-4c0-1.1-.5-1.3-1.2-1.3h-6.5c-4.4,0-6.5.4-6.9,3.5-.7,3.7.8,4.3,6.2,4.3s4.9-.2,5.8-.4h-.2Z"/>
    <path class="st0" d="M1432.3,267.7c-.4,2.9-1,3.4-4.7,3.4h-1c-3.9,0-4.4-.6-4-3.4l2.7-16.3c.4-2.4.9-3.2,6.2-4,3.3-.5,8.9-.9,13.6-.9,11,0,14.7,2.7,13.6,9.2l-1.8,12c-.4,2.9-1,3.4-4.7,3.4h-1c-4,0-4.5-.6-4.1-3.4l2-12.1c.7-4.8-1.6-5.5-6-5.5s-4.6.2-6.2.6c-1,.2-1.6.6-1.7,1.7l-2.5,15.3h-.4Z"/>
    <path class="st0" d="M1473.5,280.4c-1.5-.2-1.6-.5-1.4-2.2s1-2.4,2.4-2.3c.9.1,3.4.5,5.5.5,4.5,0,5.9-.5,7.8-4.2.3-.5.4-1.2-.7-1.2h-5.2c-2.7,0-3.6-.4-4.3-2.7l-5.8-18c-.9-2.8,0-3.4,5.1-3.4s4.6.5,5.4,3l4.8,16.6c.4.9.8,1,1.8,1h.4c1,0,1.7,0,2.2-1l10.2-17.6c1-1.6,2.1-2.1,4.5-2.1s2.9.4,1.8,2.1l-15.9,25.6c-2.8,4.6-5.6,6.3-13.5,6.3s-4.2-.2-5.4-.4h.3Z"/>
  </g>
</svg>