<?xml version="1.0" encoding="UTF-8"?>
<svg id="Layer_1" xmlns="http://www.w3.org/2000/svg" version="1.1" viewBox="0 0 1533.9 287.3">
  <!-- Generator: Adobe Illustrator 30.1.0, SVG Export Plug-In . SVG Version: 2.1.1 Build 136)  -->
  <defs>
    <style>
      .st0 {
        fill: #4ebb98;
      }

      .st1 {
        fill: #0aa2ae;
      }

      .st2 {
        fill: #fff;
      }
    </style>
  </defs>
  <g>
    <path class="st2" d="M203.7,167.4c6.1-4.1,6.5-8.6,8.2-12.3,12.4-27.1,24.5-54.3,36.9-81.4,19.1-41.9,52.9-61.7,97.9-64.2,13.4-.7,26.9-.7,40.3-.7,11.6,0,12,.5,9.8,11.7-11.8,61.4-23.6,122.8-35.3,184.3q-3.5,18.4-22.5,18.4c-11.5,0-23-.3-34.4.3-7.5.4-9-2.3-7.3-9.2,9.7-39.1,17.4-78.7,24.7-118.3,1.2-6.8,2.1-13.6,3.7-20.3,1.9-8-1.7-9.6-8.8-9.3-10.9.5-18.4,5.9-24.5,14.2-13.9,18.9-23.4,40.2-32.9,61.4-10.9,24.2-21.4,48.6-31.6,73.1-2.5,6.1-5.7,8.4-12.3,8.3-22.6-.4-45.2-.4-67.8.1-8.5.2-10.5-2.3-9.8-10.7,4.4-46.6,8.1-93.3,12.6-140,.9-9.2-2.5-11.3-10.7-11.5-12.9-.2-21.6,4.3-26.9,16.8-18.9,44.7-35.3,90.3-52.7,135.6-2.6,6.8-5.8,9.9-13.4,9.6-13.1-.6-26.2-.3-39.3,0-6.7.2-9.2-1.6-6.4-8.5,21.4-51.7,40.8-104.3,63.5-155.5,10.9-24.6,30-38.7,56-44.8,29.1-6.9,58.5-6.2,88-6.2,7.4,0,6.4,5.2,6.1,9.6-1.6,24.8-3.2,49.7-5,74.5-1.8,24.4-3.9,48.9-6,75.2Z"/>
    <path class="st2" d="M677.8,222.4c-8.5,0-17.1.4-25.5-.1-7.1-.5-9.8,2.4-10.9,9.2-2.1,13.9-5.3,27.6-7.5,41.5-.9,6.1-3.5,8.2-9.6,8.1-13.1-.3-26.2-.3-39.3,0-6.9.2-9-1.7-7.7-9,6.8-37.4,13.1-74.8,19.5-112.2,1.8-10.3,3.3-20.7,5.6-30.9,8.1-36.2,24.2-51.5,61-56.5,26.7-3.7,53.5-4.1,80.3-.2,29.6,4.3,48.3,25.7,49.4,55.7.6,16-2.3,31.3-8.5,46-10,23.8-27.9,38.1-53.1,43.6-17.7,3.9-35.7,4.6-53.7,4.8ZM674.2,196.7c0-.2,0-.3,0-.5,5.6,0,11.1.3,16.7,0,18.3-1,30.7-10,36.3-27.7,4.6-14.4,7.8-29.1,7.1-44.4-.8-16.9-7.6-24.2-24.4-26.1-28.9-3.2-41.9,6.1-48.9,34.3-3.9,15.9-6.9,32-9,48.3-2.3,18-4.5,16.2,14.3,16.1,2.6,0,5.2,0,7.9,0Z"/>
    <path class="st2" d="M496.8,222.2c-19,0-38,.1-57,0-4.9,0-9.8-.9-14.6-1.9-25.2-5.4-37.6-18.9-37.7-40.7,0-24.1,14.8-43,38.2-48.2,16.8-3.7,33.9-2.9,50.9-3.1,12.1-.1,24.3-.3,36.4,0,5.7.2,7.5-2.5,7.7-7.5.6-11.4-5.7-19.4-17.2-21.3-16.3-2.6-32.7-.5-49.1-1.1-4.6-.1-9.2,0-13.8-.3-16.6-1.2-22.7-10.4-17.8-26.1,1.2-3.9,4-4,6.8-4,35.4-.1,70.9-1,106,3.9,32.4,4.5,47.5,23.5,43.5,56.1-3.6,29.9-9.9,59.4-14.8,89.1-1,6.2-5.4,5.7-9.6,5.7-19.3,0-38.7,0-58,0,0-.2,0-.4,0-.6ZM485.1,197.6c0-.1,0-.2,0-.4,5.9,0,11.8-.2,17.6,0,4.3.2,6.7-1.5,7.4-5.9,1.7-11.3,3.6-22.6,5.3-33.9.5-3.1.2-6.3-4-6.2-17.6.3-35.4-1.5-52.6,3-9.5,2.5-14.5,13.2-13.6,25.6.7,9.7,5.3,14.4,16.5,15.9,7.7,1,15.6,1.2,23.4,1.7Z"/>
    <path class="st2" d="M987.5,223.5c-14.8,0-29.5-.4-44.1-2.8-27-4.4-43.1-19.5-47.3-46.6-4.2-26.6,1.8-51.6,17.4-73.6,12.4-17.4,30.8-25,51.2-28,22.8-3.3,45.6-3.2,68.6-1.2,49.7,4.2,69.4,43.4,59.3,86.8-9,38.7-33.9,59.9-73.6,63.8-10.4,1-20.9,1.1-31.4,1.6ZM1035.3,133.4c-.5-10.8.5-21.6-9.2-29.1-16.3-12.7-48.3-7.1-59.2,10.5-7.1,11.4-9.9,24-11.8,37.1-5.2,37,7.1,49.2,44,44.6,13.3-1.7,22.3-8.4,27.6-20.5,6-13.7,8.1-28.2,8.5-42.5Z"/>
    <path class="st2" d="M828.9,223c-6.5,0-13.1-.5-19.6.1-9.1.9-10.4-2.9-8.8-10.8,5.4-27.6,10.4-55.3,15.4-83,4.8-26.4,9-52.9,14.4-79.2C836.8,17.8,856.4.9,886.6,0c11.2-.3,11.8.3,9.8,11.4-9.2,51.6-18.4,103.1-27.5,154.7-2.8,15.8-5.4,31.6-7.7,47.5-1,6.6-3.4,9.9-10.7,9.4-7.2-.6-14.4-.1-21.6-.1v.2Z"/>
    <path class="st2" d="M1221,69.3c9.5,0,19,0,28.5,0,6.7,0,8.3,2.5,4.7,8.3-6.7,10.7-15.8,18.3-28.5,20.7-1.6.3-3.2.8-4.8.8-25.2-.7-36.6,14.3-42.7,36.4-6.9,25.1-9.4,50.8-13.4,76.4-1.3,8.5-4,11.8-12.9,11.3-13.1-.7-26.2-.2-39.3,0-4.3,0-8.4-.2-7.2-6.2,6.6-32.4,9.6-65.4,18.3-97.4,8-29.4,28.1-43.5,57.2-47.4,13.4-1.8,26.8-2.1,40.2-2.7Z"/>
    <path class="st2" d="M1324.5,68.3c18,0,17.6-.1,13.9,17.3-5.7,26.9-10.8,53.9-16.2,80.8-.6,3.2-1.1,6.4-1.9,9.6-8.5,37.7-27.6,50.7-66.1,45.5-4.4-.6-5.6-2.4-4.8-6.4,7.4-37.9,14.3-75.9,22.3-113.6,4.1-19.2,24.4-35.4,52.7-33.2Z"/>
  </g>
  <path class="st1" d="M1530.5,67.9h-27.3c-4.7,0-12.4,3.8-17.3,8.5l-38.1,36.7-22.2-36.7c-.5-.8-1.1-1.6-1.7-2.3-.5-.6-1.1-1.2-1.8-1.7-3-2.6-6.9-4.4-10.1-4.4h-44.4c-3.1,0-4.8,1.7-4.8,4.2,0,1.2.5,2.7,1.4,4.3l32.4,53.5,12.4,20.6-50.9,49-14.7,14.1c-.9.9-1.7,1.7-2.2,2.5-2.5,3.5-1.9,6,1.9,6h27.3c4.7,0,12.4-3.8,17.3-8.5l37.6-36.2,21.9,36.2c2.8,4.7,8.9,8.5,13.6,8.5h44.4c4.7,0,6.2-3.8,3.4-8.5l-44.5-73.6,66.1-63.6c4.9-4.7,5-8.5.3-8.5Z"/>
  <g>
    <path class="st0" d="M697.7,277.7c-3.8,0-4.4-.5-3.9-3.3l2.4-15.2c.4-2.3,1-3.8,6.1-4.5,3.9-.6,9.8-1,14.2-1s1.7.3,1.4,2c-.2,1.4-.5,2.1-1.9,2.1h-.7c-3,0-6.8.3-8.3.6-.7.2-1.3.5-1.4,1.6l-2.3,14.5c-.4,2.8-1,3.3-4.6,3.3h-1Z"/>
    <path class="st0" d="M724,266c1.3-7.9,4.6-12.4,19.5-12.4s17,1.8,15.6,10.7c-.4,3-.9,3.5-5.5,3.5h-18.7c-.8,0-1.5.2-1.7,1.3-.7,4.9,3.8,5.1,10.1,5.1s8.7-.5,10-.7c1.4-.2,1.9,0,1.6,1.7-.2,1.6-.5,1.8-2.1,2.1-.9.2-5.7.8-12,.8-14.7,0-18.3-3.6-16.9-12.2ZM747.7,264.3c.9,0,1.4-.2,1.7-1.4.7-4.2-1-6-6.4-6s-7.6,1.5-8.4,6c-.2,1.2.3,1.4,1.2,1.4h11.9Z"/>
    <path class="st0" d="M770.5,265.9c1.3-8.1,5.6-12.4,20-12.3,6.7,0,10.4.7,11.3.8,1.6.3,1.7.5,1.5,2.1-.3,1.7-.8,1.9-2.1,1.7-1.4-.2-5.7-.7-9.2-.7-8.2,0-10.4,2.2-11.4,8.3-1,6.1.5,8.4,8.7,8.4s8.1-.5,9.5-.7c1.4-.2,1.8,0,1.6,1.7-.2,1.6-.5,1.8-2.1,2.1-.9.2-4.9.8-11.6.8-14.4.1-17.3-4.2-16.1-12.3Z"/>
    <path class="st0" d="M817,277.7c-3.8,0-4.4-.5-3.9-3.3l2.4-15.2c.4-2.3,1-3.8,6.1-4.5,3.9-.6,9.8-1,14.2-1s1.7.3,1.4,2c-.2,1.4-.5,2.1-1.9,2.1h-.7c-3,0-6.8.3-8.3.6-.7.2-1.3.5-1.4,1.6l-2.3,14.5c-.4,2.8-1,3.3-4.6,3.3h-1Z"/>
    <path class="st0" d="M854.7,267.5c-.8,5.6,1,7.2,8.1,7.2s9.4-2,10.1-7.3l1.8-11.6c.2-1.2,1.2-1.6,2.9-1.6s2.6.4,2.4,1.7l-1.7,11.2c-1.2,7.2-3.8,11.2-18.1,11.2s-16.1-3.6-14.9-11.3l1.5-9.4c.5-2.8,1.1-3.3,4.7-3.3h1c3.8,0,4.4.5,3.9,3.3l-1.6,10Z"/>
    <path class="st0" d="M892.2,270l3.2-20.2c.4-2.8,1.1-3.3,4.7-3.3h1c3.8,0,4.3.5,3.9,3.3l-.5,2.9c-.2,1.1.1,1.6,1.4,1.6h9.4c1.4,0,1.6.5,1.3,1.8-.2,1.4-.4,1.7-1.8,1.7h-9.4c-1.3,0-1.7.5-1.9,1.6l-1.7,10.8c-.6,3.9,1.7,4.1,5,4.1s5.4-.3,7.1-.5c1.4-.1,1.7,0,1.5,1.7-.2,1.6-.5,1.8-2,2.1-1.3.2-4.7.6-9.7.6-9.3,0-12.4-2.1-11.5-8.1Z"/>
    <path class="st0" d="M955.5,254.8c2.3.9,2.8.8,6,0,3-.8,6.2-1.2,9.7-1.2,11.5,0,15,2.4,14,9l-1.8,11.7c-.4,2.8-1,3.3-4.6,3.3h-1c-3.8,0-4.4-.5-3.9-3.3l1.9-11.8c.7-4.7-1.5-5.4-5.5-5.4s-4.7.3-6.1.6c-1,.2-1.5.6-1.7,1.7l-2.4,14.9c-.4,2.8-1,3.3-4.6,3.3h-1c-3.8,0-4.4-.5-3.9-3.3l1.9-12c.7-4.5-1.6-5.3-5.5-5.3s-4.7.3-6.1.6c-1,.2-1.5.6-1.7,1.7l-2.4,14.9c-.4,2.8-1,3.3-4.6,3.3h-1c-3.8,0-4.4-.5-3.9-3.3l2.6-15.9c.4-2.3.9-3.1,6-3.9,3-.5,8.1-.9,12.5-.9s5.9.6,7.4,1.1Z"/>
    <path class="st0" d="M997.7,266c1.3-7.9,4.6-12.4,19.5-12.4s17,1.8,15.6,10.7c-.4,3-.9,3.5-5.5,3.5h-18.7c-.8,0-1.5.2-1.7,1.3-.7,4.9,3.8,5.1,10.1,5.1s8.7-.5,10-.7c1.4-.2,1.8,0,1.6,1.7-.2,1.6-.5,1.8-2.1,2.1-.9.2-5.7.8-12,.8-14.7,0-18.3-3.6-16.9-12.2ZM1021.4,264.3c.9,0,1.4-.2,1.7-1.4.7-4.2-1-6-6.4-6s-7.6,1.5-8.4,6c-.2,1.2.3,1.4,1.2,1.4h11.9Z"/>
    <path class="st0" d="M1053.9,274.4c-.4,2.8-1,3.3-4.6,3.3h-1c-3.8,0-4.3-.6-3.9-3.3l2.6-15.9c.4-2.3.9-3.1,6-3.9,3.2-.5,8.7-.9,13.2-.9,10.7,0,14.3,2.6,13.2,9l-1.8,11.7c-.4,2.8-1,3.3-4.6,3.3h-1c-3.9,0-4.4-.6-4-3.3l1.9-11.8c.7-4.7-1.6-5.4-5.8-5.4s-4.5.2-6,.6c-1,.2-1.6.6-1.7,1.7l-2.4,14.9Z"/>
    <path class="st0" d="M1092.8,270l3.2-20.2c.4-2.8,1.1-3.3,4.7-3.3h1c3.8,0,4.3.5,3.9,3.3l-.5,2.9c-.2,1.1.1,1.6,1.4,1.6h9.4c1.4,0,1.6.5,1.3,1.8-.2,1.4-.4,1.7-1.8,1.7h-9.4c-1.3,0-1.7.5-1.9,1.6l-1.7,10.8c-.6,3.9,1.7,4.1,5,4.1s5.4-.3,7.1-.5c1.4-.1,1.7,0,1.5,1.7-.2,1.6-.5,1.8-2,2.1-1.3.2-4.7.6-9.7.6-9.3,0-12.4-2.1-11.5-8.1Z"/>
    <path class="st0" d="M1147.6,265.9c1.3-8.1,5.6-12.4,20-12.3,6.7,0,10.4.7,11.3.8,1.6.3,1.7.5,1.5,2.1-.3,1.7-.8,1.9-2.1,1.7-1.4-.2-5.7-.7-9.2-.7-8.2,0-10.4,2.2-11.4,8.3-1,6.1.5,8.4,8.7,8.4s8.1-.5,9.5-.7c1.4-.2,1.9,0,1.6,1.7-.2,1.6-.5,1.8-2.1,2.1-.9.2-4.9.8-11.6.8-14.4.1-17.3-4.2-16.1-12.3Z"/>
    <path class="st0" d="M1189.9,266c1.1-6.9,3.6-12.4,19.9-12.4s17,5.5,15.9,12.4c-1.1,6.8-3.6,12.3-19.8,12.3s-17.1-5.5-16-12.3ZM1215.7,266c1-5.8.9-9.1-6.4-9.1s-8.4,3.2-9.4,9.1c-.9,5.8-.8,9,6.5,9s8.4-3.2,9.2-9Z"/>
    <path class="st0" d="M1266.3,254.8c2.3.9,2.8.8,6,0,3-.8,6.2-1.2,9.7-1.2,11.5,0,15,2.4,14,9l-1.8,11.7c-.4,2.8-1,3.3-4.6,3.3h-1c-3.8,0-4.4-.5-3.9-3.3l1.9-11.8c.7-4.7-1.5-5.4-5.5-5.4s-4.7.3-6.1.6c-1,.2-1.5.6-1.7,1.7l-2.4,14.9c-.4,2.8-1,3.3-4.6,3.3h-1c-3.8,0-4.4-.5-3.9-3.3l1.9-12c.7-4.5-1.6-5.3-5.5-5.3s-4.7.3-6.1.6c-1,.2-1.5.6-1.7,1.7l-2.4,14.9c-.4,2.8-1,3.3-4.6,3.3h-1c-3.8,0-4.4-.5-3.9-3.3l2.6-15.9c.4-2.3.9-3.1,6-3.9,3-.5,8.1-.9,12.5-.9s5.9.6,7.4,1.1Z"/>
    <path class="st0" d="M1307.1,284l4.1-25.6c.4-2.3,1-3.3,5.8-4,2.8-.4,7.2-.7,11.7-.7,14.5,0,17,3.8,15.7,12.3-1.4,8.5-4.7,12.3-18.9,12.3s-4.7-.2-6.4-.3c-.8,0-1.4.1-1.6,1.3l-.8,4.8c-.4,2.8-1.1,3.3-4.7,3.3h-1c-3.8,0-4.3-.5-3.9-3.3ZM1334.4,266c1.2-7.5-.6-9-6.3-9s-5.5.4-6.1.5c-.6.1-1.3.3-1.4,1.3l-2.3,14.3c-.1,1,.4,1.2,1,1.4.5.1,3,.4,5.9.4,5.7,0,7.9-1.5,9.1-9Z"/>
    <path class="st0" d="M1355.3,270.5c1-6.3,7.6-6.7,16.6-6.7h6.9c.7,0,1.5-.2,1.7-1.4l.2-1c.6-3.8-2-4-7.3-4s-10.6.8-11.8.9c-1.3.2-1.8-.1-1.5-1.8.2-1.6.5-1.9,2-2.1,1.1-.2,7.3-.8,14.1-.8s9.1.5,11.5,1.7c2.4,1.3,2.9,3.3,2.4,6l-1.9,12.2c-.4,2.3-1,3.3-6,4.1-3,.4-8.4.7-12.5.7-13.7,0-15.4-2.3-14.5-7.8ZM1376.8,274.5c1-.2,1.9-.5,2-1.9l.7-3.9c.1-1.1-.5-1.3-1.2-1.3h-6.3c-4.3,0-6.3.4-6.7,3.4-.7,3.6.8,4.2,6,4.2s4.8-.2,5.6-.4Z"/>
    <path class="st0" d="M1412.3,274.4c-.4,2.8-1,3.3-4.6,3.3h-1c-3.8,0-4.3-.6-3.9-3.3l2.6-15.9c.4-2.3.9-3.1,6-3.9,3.2-.5,8.7-.9,13.2-.9,10.7,0,14.3,2.6,13.2,9l-1.8,11.7c-.4,2.8-1,3.3-4.6,3.3h-1c-3.9,0-4.4-.6-4-3.3l1.9-11.8c.7-4.7-1.6-5.4-5.8-5.4s-4.5.2-6,.6c-1,.2-1.6.6-1.7,1.7l-2.4,14.9Z"/>
    <path class="st0" d="M1452.4,286.8c-1.5-.2-1.6-.5-1.4-2.1.2-1.6,1-2.3,2.3-2.2.9.1,3.3.5,5.4.5,4.4,0,5.7-.5,7.6-4.1.3-.5.4-1.2-.7-1.2h-5.1c-2.6,0-3.5-.4-4.2-2.6l-5.6-17.5c-.9-2.7,0-3.3,5-3.3s4.5.5,5.3,2.9l4.7,16.2c.4.9.8,1,1.8,1h.4c1,0,1.7,0,2.1-1l9.9-17.1c1-1.6,2-2,4.4-2s2.8.4,1.8,2l-15.5,24.9c-2.7,4.5-5.5,6.1-13.1,6.1s-4.1-.2-5.3-.4Z"/>
  </g>
</svg>