<?xml version="1.0" encoding="UTF-8"?>
<svg version="1.1" xmlns="http://www.w3.org/2000/svg" width="1668" height="400">
<path d="M0 0 C3.39408273 -0.00222239 6.78785775 -0.02054434 10.18188477 -0.03930664 C12.34008679 -0.04223481 14.49829034 -0.04422346 16.65649414 -0.04516602 C17.67093094 -0.05235153 18.68536774 -0.05953705 19.73054504 -0.06694031 C20.66299545 -0.06386368 21.59544586 -0.06078705 22.55615234 -0.05761719 C23.37694778 -0.05904221 24.19774323 -0.06046722 25.04341125 -0.06193542 C27.04321289 0.18530273 27.04321289 0.18530273 29.04321289 2.18530273 C29.22584137 5.2043282 29.28456945 8.11826336 29.24145508 11.13598633 C29.23430859 12.03375982 29.22716209 12.93153332 29.21979904 13.85651207 C29.10705996 22.92153581 28.54306877 31.93646461 27.87133789 40.97436523 C27.74702074 42.71725997 27.62328787 44.46019646 27.50009155 46.20317078 C27.1734999 50.79703151 26.83798245 55.3901961 26.50025177 59.98324966 C26.22210314 63.78128486 25.94932335 67.57969833 25.67647743 71.37811756 C23.61992213 99.99273512 21.44224472 128.59719898 19.04321289 157.18530273 C21.39811314 154.36465487 23.43404328 151.82214033 24.80493164 148.40405273 C25.10995605 147.66445312 25.41498047 146.92485352 25.72924805 146.1628418 C26.05973145 145.34525391 26.39021484 144.52766602 26.73071289 143.68530273 C30.97723922 133.49143068 35.53757758 123.45846242 40.16821289 113.43530273 C41.6463208 110.23489418 43.12427123 107.03441314 44.60180664 103.83374023 C45.15528275 102.63516891 45.15528275 102.63516891 45.71994019 101.41238403 C48.26074526 95.90275446 50.77217718 90.38046325 53.26586914 84.84936523 C53.60289856 84.1028772 53.93992798 83.35638916 54.28717041 82.58728027 C56.2237062 78.29751451 56.2237062 78.29751451 58.15142822 74.00378418 C63.97235519 61.00314449 70.1386817 49.32361666 79.04321289 38.18530273 C79.66969727 37.39124023 80.29618164 36.59717773 80.94165039 35.77905273 C99.08667361 14.03564938 127.04429276 4.37125785 154.39224243 1.39648438 C159.48854949 0.9905023 164.58991691 1.04335013 169.69946289 1.05249023 C170.88294312 1.05153351 172.06642334 1.05057678 173.2857666 1.04959106 C175.77002008 1.04891397 178.25427537 1.05073527 180.73852539 1.05493164 C184.55887755 1.06032485 188.37911417 1.05495123 192.19946289 1.04858398 C194.61612982 1.0492441 197.03279667 1.05052388 199.44946289 1.05249023 C200.5972522 1.050466 201.7450415 1.04844177 202.9276123 1.0463562 C204.50560608 1.05108444 204.50560608 1.05108444 206.11547852 1.0559082 C207.04541626 1.0567038 207.975354 1.05749939 208.93347168 1.05831909 C211.04321289 1.18530273 211.04321289 1.18530273 212.04321289 2.18530273 C212.99385103 10.74609839 210.95584809 19.19432948 209.30859375 27.54443359 C209.01374238 29.07515445 208.71970812 30.60603289 208.42642212 32.13705444 C207.63061143 36.27875943 206.82335699 40.41815843 206.01393199 44.55722117 C205.16046341 48.93177765 204.31749156 53.30835679 203.47328186 57.68470764 C202.04929705 65.05889603 200.61861744 72.43175819 199.18310547 79.80371094 C197.1836007 90.07202177 195.19562905 100.34253805 193.21030986 110.61359966 C189.62776226 129.14338363 186.04515703 147.67320449 182.40955049 166.19266206 C181.4636695 171.01727284 180.53151917 175.84434931 179.60738677 180.67317122 C178.98268159 183.92831619 178.35004749 187.18188878 177.71576607 190.43517983 C177.4181821 191.97081765 177.12397356 193.507114 176.83339107 195.04409206 C176.43288035 197.16015459 176.0203488 199.27354232 175.60499573 201.38673401 C175.37495629 202.58318322 175.14491686 203.77963243 174.90790653 205.01233768 C173.7644839 209.20808966 172.10926348 212.11925215 169.04321289 215.18530273 C165.61844763 216.10246799 162.37539581 216.31536047 158.84155273 216.33056641 C157.83055511 216.33694626 156.8195575 216.34332611 155.77792358 216.34989929 C154.15740585 216.35156853 154.15740585 216.35156853 152.50415039 216.35327148 C151.38634186 216.35659988 150.26853333 216.35992828 149.11685181 216.36335754 C146.75832531 216.36841266 144.39979168 216.37076631 142.04125977 216.37060547 C138.42460485 216.37279886 134.80825165 216.3909886 131.19165039 216.40991211 C128.89998477 216.41284488 126.6083177 216.41483045 124.31665039 216.41577148 C122.69005997 216.42654976 122.69005997 216.42654976 121.03060913 216.43754578 C120.02591583 216.43446915 119.02122253 216.43139252 117.98608398 216.42822266 C117.10181732 216.42964767 116.21755066 216.43107269 115.30648804 216.43254089 C113.04321289 216.18530273 113.04321289 216.18530273 110.04321289 214.18530273 C109.38564562 208.19854749 110.88555393 202.6757312 112.28149414 196.87670898 C112.77183104 194.77423177 113.26188951 192.67168961 113.75170898 190.5690918 C114.0129657 189.45957153 114.27422241 188.35005127 114.543396 187.20690918 C121.2422475 158.6810462 127.0064918 130.00169377 132.46716309 101.21655273 C133.01364137 98.34091196 133.56424137 95.46609691 134.11645508 92.59155273 C134.8862144 88.58034956 135.64683499 84.56756548 136.39678955 80.5526123 C136.65719516 79.16177772 136.91994049 77.77137878 137.1852417 76.38146973 C137.53696313 74.53120673 137.87642542 72.67862546 138.21508789 70.82592773 C138.49497559 69.31820801 138.49497559 69.31820801 138.78051758 67.7800293 C139.03975951 65.21941289 138.98719612 63.57046093 138.04321289 61.18530273 C133.44177567 58.88458413 127.43685487 59.84194837 122.60571289 61.12280273 C99.7408935 69.81619761 87.21081134 106.10585977 77.98464966 126.56832886 C75.6517223 131.76553693 73.34655669 136.97493437 71.04321289 142.18530273 C70.29426863 143.8757675 69.54524312 145.56619627 68.79614258 147.2565918 C60.80661564 165.2987691 52.84397893 183.35248384 45.30200195 201.58740234 C44.71177246 203.00484741 44.71177246 203.00484741 44.10961914 204.45092773 C43.77905518 205.25304687 43.44849121 206.05516602 43.10791016 206.8815918 C40.06048794 213.47537212 40.06048794 213.47537212 37.42630005 215.31370544 C34.06854777 216.54177962 30.82148154 216.47195273 27.29296875 216.45996094 C26.12889244 216.46762733 26.12889244 216.46762733 24.94129944 216.47544861 C22.38013975 216.48933135 19.81924944 216.48838927 17.25805664 216.48608398 C15.47733968 216.4899708 13.69662364 216.49430544 11.91590881 216.49906921 C8.18609611 216.50652796 4.45637807 216.50624204 0.7265625 216.50097656 C-4.05761744 216.49517336 -8.84141131 216.512135 -13.62552738 216.53532124 C-17.30149101 216.55003553 -20.97736107 216.55093359 -24.65334892 216.54781151 C-26.41763513 216.54832559 -28.18192646 216.5535795 -29.94618416 216.56362343 C-32.40969279 216.57593011 -34.87244147 216.56923209 -37.3359375 216.55761719 C-38.06692657 216.56526093 -38.79791565 216.57290466 -39.55105591 216.58078003 C-44.48605813 216.52922842 -44.48605813 216.52922842 -46.87059021 214.78703308 C-49.36125301 211.11424577 -48.94657154 208.08314751 -48.67578125 203.80957031 C-48.62853692 203.02112386 -48.58129259 202.2326774 -48.53261662 201.42033863 C-47.84478181 190.62475735 -46.81471826 179.85569308 -45.8139019 169.08560753 C-45.44492453 165.1113232 -45.08038847 161.1366449 -44.71730042 157.16181946 C-43.68537142 145.87435561 -42.64562844 134.58761681 -41.6015625 123.30126953 C-41.02185054 117.03404371 -40.44644748 110.76643623 -39.87547928 104.49840766 C-39.57478248 101.19979093 -39.27113974 97.90148731 -38.963377 94.60352135 C-38.62043048 90.92772182 -38.28480372 87.25131791 -37.95068359 83.57470703 C-37.84939651 82.50893433 -37.74810944 81.44316162 -37.64375305 80.34509277 C-37.37068677 77.29290469 -37.14753439 74.24370888 -36.95678711 71.18530273 C-36.83976787 69.42634139 -36.83976787 69.42634139 -36.7203846 67.63184547 C-36.65196767 65.88282212 -36.65196767 65.88282212 -36.58216858 64.09846497 C-36.5086094 62.50852077 -36.5086094 62.50852077 -36.43356419 60.88645649 C-36.69036187 57.97711404 -36.69036187 57.97711404 -39.31906796 56.34063244 C-45.91531417 53.4514548 -53.27874474 54.8772274 -59.88647461 57.13842773 C-65.26914259 59.86022966 -68.04484725 63.40240188 -70.58178711 68.74780273 C-70.92113281 69.449375 -71.26047852 70.15094727 -71.61010742 70.8737793 C-86.79114581 102.9377662 -98.40332078 137.01486025 -110.85131836 170.20092773 C-111.23862122 171.23214752 -111.62592407 172.26336731 -112.02496338 173.32583618 C-113.85377681 178.19660605 -115.67679222 183.06938396 -117.48852539 187.9465332 C-126.12129157 211.07760834 -126.12129157 211.07760834 -130.95678711 215.18530273 C-133.89585668 216.16499259 -135.79374743 216.31191515 -138.85546875 216.31469727 C-139.84982437 216.31784943 -140.84417999 216.32100159 -141.8686676 216.32424927 C-143.4765641 216.32121292 -143.4765641 216.32121292 -145.11694336 216.31811523 C-146.21775742 216.31907196 -147.31857147 216.32002869 -148.45274353 216.3210144 C-150.78034523 216.32169513 -153.10794882 216.31984832 -155.43554688 216.31567383 C-159.00842527 216.31031901 -162.58117824 216.3156251 -166.15405273 216.32202148 C-168.41251655 216.32136078 -170.6709803 216.32007979 -172.92944336 216.31811523 C-174.54037621 216.32115158 -174.54037621 216.32115158 -176.18385315 216.32424927 C-177.17505661 216.32109711 -178.16626007 216.31794495 -179.1875 216.31469727 C-180.06225479 216.31390167 -180.93700958 216.31310608 -181.83827209 216.31228638 C-183.95678711 216.18530273 -183.95678711 216.18530273 -185.95678711 215.18530273 C-186.22734641 209.4301653 -185.59367128 205.17117039 -183.29272461 199.85327148 C-182.99746384 199.13742386 -182.70220306 198.42157623 -182.397995 197.68403625 C-181.74063441 196.094213 -181.07690299 194.50701314 -180.40774536 192.92211914 C-178.46428364 188.31738764 -176.56866611 183.69282635 -174.66381836 179.07202148 C-174.23054733 178.02484955 -173.79727631 176.97767761 -173.35087585 175.89877319 C-169.41573123 166.36505863 -165.58976799 156.78958703 -161.78100586 147.20483398 C-161.14509647 145.60511858 -160.50917619 144.00540751 -159.87324524 142.40570068 C-159.55520904 141.60563599 -159.23717283 140.80557129 -158.90949917 139.98126221 C-158.42956808 138.7739444 -158.42956808 138.7739444 -157.93994141 137.54223633 C-157.61817208 136.73272522 -157.29640276 135.92321411 -156.96488285 135.08917236 C-147.67703054 111.72935464 -138.38780823 88.36984302 -128.51928711 65.24780273 C-128.17028351 64.4236084 -127.82127991 63.59941406 -127.46170044 62.75024414 C-117.39351593 39.0380204 -104.6431116 20.40334507 -79.95678711 10.18530273 C-54.4911951 0.77291258 -26.83844289 -0.00197472 0 0 Z " fill="#FFFFFF" transform="translate(252.956787109375,62.814697265625)"/>
<path d="M0 0 C1.03125 0.7425 2.0625 1.485 3.125 2.25 C13.9563443 12.61041629 19.82091343 26.52506016 20.3359375 41.37109375 C20.63611905 64.76051404 17.61725588 86.3012512 4 106 C3.42765625 106.83015625 2.8553125 107.6603125 2.265625 108.515625 C-11.60371297 127.19911334 -33.0609337 134.12202993 -55.12890625 137.38671875 C-64.94234899 138.68373458 -74.73386099 139.15747303 -84.625 139.28125 C-86.98307307 139.31900098 -89.34114598 139.35676167 -91.69921875 139.39453125 C-95.37058873 139.44835497 -99.04197781 139.50059061 -102.71337891 139.55224609 C-106.28815597 139.60393076 -109.86281433 139.66113851 -113.4375 139.71875 C-115.08903076 139.73911316 -115.08903076 139.73911316 -116.77392578 139.7598877 C-117.79599121 139.77660522 -118.81805664 139.79332275 -119.87109375 139.81054688 C-120.76755615 139.82307495 -121.66401855 139.83560303 -122.58764648 139.84851074 C-124.85306825 139.99077308 -126.82569358 140.36800034 -129 141 C-129.73293681 144.60340961 -130.46038059 148.20791247 -131.1875 151.8125 C-131.52587891 153.47490723 -131.52587891 153.47490723 -131.87109375 155.17089844 C-133.09932179 161.26598007 -134.24927276 167.36253979 -135.26953125 173.49609375 C-135.47618408 174.70869873 -135.68283691 175.92130371 -135.89575195 177.1706543 C-136.29229877 179.51965344 -136.67289462 181.8714126 -137.03588867 184.22583008 C-137.21998291 185.3011499 -137.40407715 186.37646973 -137.59375 187.484375 C-137.74521484 188.43022461 -137.89667969 189.37607422 -138.05273438 190.35058594 C-139.40890484 194.14366891 -140.67691121 195.66463161 -144 198 C-147.77731299 198.71329179 -151.48627589 198.65313757 -155.3203125 198.59375 C-156.41592499 198.59379028 -157.51153748 198.59383057 -158.64035034 198.59387207 C-160.95186106 198.58851873 -163.26337143 198.5709442 -165.57470703 198.54199219 C-169.11937805 198.5000665 -172.66215364 198.5009302 -176.20703125 198.5078125 C-178.45313825 198.49732257 -180.69923543 198.48438553 -182.9453125 198.46875 C-184.00783234 198.46854858 -185.07035217 198.46834717 -186.16506958 198.46813965 C-187.14974213 198.45222778 -188.13441467 198.43631592 -189.14892578 198.41992188 C-190.01542755 198.41150269 -190.88192932 198.4030835 -191.77468872 198.39440918 C-194 198 -194 198 -195.8107605 196.78941345 C-200.31852326 190.00671634 -194.34095804 172.70769582 -192.9375 164.80859375 C-192.62655785 163.0353804 -192.31609334 161.26208324 -192.006073 159.4887085 C-191.18066686 154.77524299 -190.34871833 150.06295647 -189.51503754 145.35094833 C-188.65309215 140.47512244 -187.79577694 135.59848241 -186.93798828 130.72192383 C-185.91318593 124.89751472 -184.88773727 119.07322255 -183.85940552 113.24943542 C-181.9379645 102.36369544 -180.04215558 91.47409874 -178.1796875 80.578125 C-177.59076498 77.15531512 -177.00095193 73.7326604 -176.41064453 70.31008911 C-176.05963513 68.26384751 -175.71185956 66.21704796 -175.36767578 64.16964722 C-170.2843028 33.96426781 -170.2843028 33.96426781 -163.25 20.5625 C-162.91202393 19.90838135 -162.57404785 19.2542627 -162.22583008 18.58032227 C-154.32664724 3.91299652 -141.6623322 -4.17122637 -126 -9 C-89.60910886 -18.30929773 -31.36041923 -23.75982883 0 0 Z M-101.25 25.0625 C-117.4016118 44.60435111 -122.97299287 86.67517822 -122 111 C-118.24248174 113.45646542 -114.51462762 113.26477014 -110.1875 113.1875 C-109.41212891 113.17887939 -108.63675781 113.17025879 -107.83789062 113.16137695 C-105.22473211 113.12308421 -102.61267162 113.06314614 -100 113 C-99.03271973 112.98066406 -98.06543945 112.96132812 -97.06884766 112.94140625 C-94.04509557 112.8748749 -91.02290122 112.7849971 -88 112.6875 C-87.05793701 112.66518311 -86.11587402 112.64286621 -85.14526367 112.61987305 C-72.65569826 112.13226597 -62.23390899 108.17336353 -53.58984375 98.98046875 C-41.6676526 84.1289923 -37.59034793 57.50168346 -39 39 C-40.09925147 32.47723578 -41.33580511 25.90338437 -46 21 C-62.03866902 9.94632271 -87.56283045 10.94041104 -101.25 25.0625 Z " fill="#FFFFFF" transform="translate(840,139)"/>
<path d="M0 0 C0.68029266 -0.00350464 1.36058533 -0.00700928 2.06149292 -0.01062012 C4.32820669 -0.01946887 6.59461069 -0.01356191 8.86132812 -0.00683594 C10.45528218 -0.0081854 12.04923582 -0.01012827 13.64318848 -0.01263428 C17.0059801 -0.01559275 20.36866596 -0.01127844 23.73144531 -0.00195312 C27.96049671 0.00922375 32.18929045 0.00283859 36.4183321 -0.0088377 C117.12394042 -0.19777729 117.12394042 -0.19777729 137.32226562 17.99707031 C146.2770568 27.27853841 148.77870999 39.2421537 148.84350586 51.71948242 C148.5815062 66.05147286 145.77325308 80.26050079 143.38574219 94.35986328 C142.67616635 98.55166962 141.98550875 102.74614041 141.30566406 106.94287109 C140.36020144 112.77633688 139.39218274 118.60566445 138.40866089 124.43283081 C138.02440974 126.7246977 137.64636811 129.01761472 137.27468872 131.31155396 C136.74887848 134.53980955 136.19710892 137.76260166 135.63867188 140.98535156 C135.41061356 142.43434593 135.41061356 142.43434593 135.177948 143.91261292 C134.45811038 147.92862632 133.63892888 150.84988469 131.51928711 154.36816406 C126.56671701 157.36283127 121.79511849 156.89151854 116.11914062 156.78222656 C114.87583984 156.77806732 113.63253906 156.77390808 112.3515625 156.7696228 C108.94900825 156.7527642 105.54818818 156.71338567 102.14606476 156.66282654 C98.57390895 156.61409408 95.00157571 156.5910421 91.42919922 156.56445312 C85.45188065 156.51617513 79.47503079 156.44828883 73.49804688 156.36914062 C66.76269798 156.28056833 60.02777423 156.22575091 53.29194069 156.19216347 C46.89241776 156.16003316 40.49323165 156.10718531 34.09393311 156.04522705 C31.40477258 156.01959711 28.71597007 156.00247879 26.02667236 155.98944092 C4.02786418 155.8642537 -18.73930474 155.56339663 -35.70117188 139.46191406 C-44.42915833 129.37465103 -45.43277724 117.0452467 -44.60742188 104.25878906 C-42.67830613 90.77118989 -36.27644427 79.73337113 -25.60742188 71.25878906 C-8.92184278 60.54531566 10.33848828 60.1509952 29.56392288 60.05955887 C31.85905211 60.04757797 34.15400879 60.02809214 36.44906616 60.00643921 C42.96387086 59.94537795 49.47863966 59.89050193 55.99365234 59.85742188 C60.00173134 59.83653908 64.00946386 59.80132428 68.01734543 59.75666428 C69.53958461 59.74249264 71.0618847 59.7337792 72.58418655 59.73060989 C74.69989101 59.7257281 76.81466005 59.70265569 78.93017578 59.67529297 C80.73453598 59.66316269 80.73453598 59.66316269 82.5753479 59.65078735 C83.50503387 59.52142792 84.43471985 59.39206848 85.39257812 59.25878906 C88.24065684 54.98667099 87.88590798 51.27039396 87.39257812 46.25878906 C85.63170401 41.07399304 82.83438443 38.39418175 78.39257812 35.25878906 C69.63980204 31.36866636 59.27299425 32.10405973 49.88867188 32.04785156 C47.26561859 32.01979929 44.64257178 31.99113495 42.01953125 31.96191406 C37.91613025 31.91951417 33.81277301 31.88261118 29.70922852 31.85742188 C25.7271634 31.83234039 21.74552109 31.78393425 17.76367188 31.73535156 C16.54264267 31.73209869 15.32161346 31.72884583 14.06358337 31.72549438 C5.23007995 31.59841585 -1.9821248 30.68922446 -8.60742188 24.25878906 C-10.83767225 20.81203848 -10.87616163 17.87376077 -10.85742188 13.82128906 C-10.86515625 12.15259766 -10.86515625 12.15259766 -10.87304688 10.45019531 C-10.21434808 2.53612307 -7.81843305 0.01010001 0 0 Z M34.54882812 85.52832031 C33.81603638 85.63641525 33.08324463 85.74451019 32.32824707 85.85588074 C26.3830507 86.89603064 21.34504113 89.38979661 17.64257812 94.25878906 C13.5189766 100.49089882 12.84335997 108.36496532 13.83007812 115.63378906 C15.12713895 120.83876864 17.87007142 123.53956035 22.39257812 126.25878906 C29.69598852 129.59295468 38.34875106 129.41729254 46.25976562 129.46191406 C47.06116974 129.46761414 47.86257385 129.47331421 48.68826294 129.47918701 C50.36377676 129.48855005 52.03930828 129.49513588 53.71484375 129.49902344 C56.28221674 129.50884506 58.84882583 129.5399938 61.41601562 129.57128906 C63.05142759 129.57780983 64.6868452 129.58306392 66.32226562 129.58691406 C67.47068436 129.60543427 67.47068436 129.60543427 68.64230347 129.62432861 C72.70839436 129.62762898 72.70839436 129.62762898 76.33105469 127.98168945 C77.5132112 126.06299615 78.02256419 124.57743573 78.44726562 122.36425781 C78.60291992 121.56810059 78.75857422 120.77194336 78.91894531 119.95166016 C79.15339355 118.61868896 79.15339355 118.61868896 79.39257812 117.25878906 C79.56692383 116.27604004 79.74126953 115.29329102 79.92089844 114.28076172 C80.47567395 111.04757001 81.00034723 107.81068702 81.51757812 104.57128906 C81.69933594 103.46978516 81.88109375 102.36828125 82.06835938 101.23339844 C82.23980469 100.16541016 82.41125 99.09742188 82.58789062 97.99707031 C82.82016357 96.55908081 82.82016357 96.55908081 83.05712891 95.09204102 C83.41234459 92.09183864 83.58376112 89.2759124 83.39257812 86.25878906 C80.89896103 83.76517197 79.39140695 84.00279941 75.9864502 83.95524597 C75.24390991 83.95615738 74.50136963 83.95706879 73.73632812 83.95800781 C72.57272766 83.95158012 72.57272766 83.95158012 71.38562012 83.94502258 C69.73121107 83.93926519 68.07677669 83.93878934 66.42236328 83.94311523 C63.9575284 83.94620758 61.49397692 83.92307769 59.02929688 83.89746094 C50.77370812 83.86267849 42.71341074 84.25438132 34.54882812 85.52832031 Z " fill="#FFFFFF" transform="translate(498.607421875,122.7412109375)"/>
<path d="M0 0 C0.93613129 -0.00358521 1.87226257 -0.00717041 2.83676147 -0.01086426 C28.67285012 -0.06401272 54.79955671 1.15345885 74.5390625 20.0625 C87.97916785 34.13795578 92.32789759 51.20043471 92.15991211 70.25415039 C91.47771674 93.89677402 82.92014434 116.72306478 65.6875 133.3125 C42.33287239 153.34444461 13.30696002 154.49938475 -16.01977539 154.55273438 C-19.21202206 154.56238518 -22.40360814 154.5934707 -25.59570312 154.625 C-49.91481803 154.74958876 -75.60885044 153.68533171 -94.43359375 136.34375 C-108.47896009 121.15957017 -110.17679411 100.5653784 -109.46044922 80.86767578 C-108.16061345 58.41869697 -97.8881906 35.7765484 -81.9375 19.95703125 C-71.38747361 10.98603842 -58.78110449 5.96447682 -45.3125 3.3125 C-44.22485352 3.08820313 -44.22485352 3.08820313 -43.11523438 2.859375 C-28.8387661 0.06902905 -14.49032792 0.02238706 0 0 Z M-33.3125 41.3125 C-45.90620919 56.28043305 -50.19663488 80.47389896 -49.6015625 99.5703125 C-48.81925702 106.9916429 -47.42889915 114.64297662 -42.3125 120.3125 C-34.57598556 126.34292719 -26.73179921 127.68549622 -17.125 127.625 C-15.72942871 127.61654053 -15.72942871 127.61654053 -14.30566406 127.60791016 C-2.11100524 127.39326036 7.17029997 125.00589729 16.3984375 116.7890625 C29.0051095 103.67044442 30.86593889 80.5793859 31 63.5 C31.02900391 62.27990234 31.05800781 61.05980469 31.08789062 59.80273438 C31.14485045 51.64871604 30.5774645 43.90591772 25.10253906 37.44091797 C18.39949667 30.89726942 9.01658463 28.57895423 -0.0625 28.125 C-12.39893385 28.33607967 -24.49310431 32.5589207 -33.3125 41.3125 Z " fill="#FFFFFF" transform="translate(1070.3125,124.6875)"/>
<path d="M0 0 C1.02156189 -0.0127597 2.04312378 -0.02551941 3.09564209 -0.03866577 C4.20393372 -0.04089142 5.31222534 -0.04311707 6.45410156 -0.04541016 C8.15980316 -0.05539536 8.15980316 -0.05539536 9.89996338 -0.06558228 C12.3108966 -0.0757244 14.72185797 -0.08039882 17.1328125 -0.08007812 C20.81590415 -0.08443853 24.49778564 -0.12070833 28.18066406 -0.15869141 C30.52180579 -0.16456179 32.86295323 -0.1685297 35.20410156 -0.17041016 C36.30429626 -0.18478119 37.40449097 -0.19915222 38.5380249 -0.21395874 C44.56706073 -0.1780863 48.449421 0.04866242 53.09472656 4.29052734 C56.68170695 8.17956924 59.46003934 12.28762254 62.16113281 16.82568359 C62.70228981 17.7273954 62.70228981 17.7273954 63.25437927 18.64732361 C64.39353617 20.5463604 65.52599561 22.44926022 66.65722656 24.35302734 C67.79254268 26.2600395 68.92942045 28.16604414 70.07078552 30.06944275 C71.10421414 31.79324108 72.13198608 33.52042695 73.15942383 35.24780273 C74.97593295 38.10375748 76.92662106 40.69513758 79.09472656 43.29052734 C87.35891873 35.65079986 95.50782818 27.93324019 103.40722656 19.91552734 C122.79346972 0.35080394 122.79346972 0.35080394 133.10229492 -0.05004883 C134.54647383 -0.04958147 135.99071657 -0.0330896 137.43457031 -0.00244141 C138.20152725 0.00180344 138.96848419 0.00604828 139.75868225 0.01042175 C142.18356988 0.02707665 144.60759454 0.06470182 147.03222656 0.10302734 C148.68651135 0.11809133 150.34080929 0.13177672 151.99511719 0.14404297 C156.02864759 0.17693658 160.06154129 0.22862485 164.09472656 0.29052734 C165.24316406 5.04150391 165.24316406 5.04150391 163.90722656 7.28271484 C163.30910156 7.90404297 162.71097656 8.52537109 162.09472656 9.16552734 C161.44375 9.85259766 160.79277344 10.53966797 160.12207031 11.24755859 C159.45304687 11.92173828 158.78402344 12.59591797 158.09472656 13.29052734 C157.51851562 13.89251953 156.94230469 14.49451172 156.34863281 15.11474609 C153.50854462 18.03354343 150.56595474 20.77169775 147.46582031 23.41162109 C142.60803553 27.64212603 138.11120814 32.20155008 133.59472656 36.79052734 C124.64101787 45.88795528 124.64101787 45.88795528 120.15722656 49.73193359 C115.03755571 54.12661609 110.34055267 58.93736422 105.59472656 63.72802734 C104.67691406 64.65035156 103.75910156 65.57267578 102.81347656 66.52294922 C100.57157602 68.77652633 98.33206057 71.0324181 96.09472656 73.29052734 C96.52068115 73.99209961 96.94663574 74.69367188 97.38549805 75.41650391 C98.68239004 77.5525613 99.97926314 79.68863016 101.27612305 81.82470703 C102.79759161 84.33067489 104.31926182 86.83652016 105.84106445 89.34228516 C109.40949874 95.21833922 112.97726695 101.09478521 116.53868103 106.97509766 C117.64752153 108.80575467 118.75693849 110.63606129 119.86645508 112.46630859 C121.30385851 114.83748965 122.73891057 117.21007242 124.17260742 119.58349609 C127.16982842 124.53720784 130.18329411 129.47308552 133.34863281 134.32177734 C133.82115479 135.05041992 134.29367676 135.7790625 134.78051758 136.52978516 C135.61295682 137.80341875 136.45715285 139.06950903 137.31713867 140.32470703 C140.17909135 144.70641107 140.92119302 148.14959601 141.09472656 153.29052734 C138.58233919 155.80291472 137.75524526 155.54706831 134.28125 155.56518555 C133.27970886 155.57471756 132.27816772 155.58424957 131.24627686 155.59407043 C129.61665009 155.59270332 129.61665009 155.59270332 127.95410156 155.59130859 C126.28169403 155.59773628 126.28169403 155.59773628 124.57550049 155.60429382 C122.21163615 155.6100464 119.8477541 155.6105306 117.48388672 155.60620117 C113.87338795 155.60305234 110.26371702 155.62645098 106.65332031 155.65185547 C104.35774843 155.65412952 102.06217434 155.65483147 99.76660156 155.65380859 C98.68828064 155.66301834 97.60995972 155.67222809 96.4989624 155.68171692 C89.96434504 155.64158206 85.40795021 155.11912626 80.26538086 150.72875977 C74.92499689 144.56560137 70.94125599 137.65243004 66.90722656 130.60302734 C65.85739739 128.7804039 64.80499245 126.9593769 63.74797058 125.14091492 C62.79532241 123.50035755 61.85065419 121.85517383 60.90649414 120.2097168 C59.14875542 117.37758072 57.23185779 114.84454489 55.09472656 112.29052734 C54.32128906 113.07556641 53.54785156 113.86060547 52.75097656 114.66943359 C51.69903272 115.73076979 50.64694136 116.79195978 49.59472656 117.85302734 C49.08941406 118.36671875 48.58410156 118.88041016 48.06347656 119.40966797 C45.2071854 122.28381095 42.28761672 125.01875138 39.21191406 127.65771484 C34.02764013 132.13847958 29.33665984 137.09206509 24.62597656 142.06201172 C18.44085488 148.40119086 10.88940995 155.07292906 1.64892578 155.41992188 C0.23243676 155.4265147 -1.18408709 155.42729429 -2.60058594 155.42333984 C-3.34863495 155.42429657 -4.09668396 155.4252533 -4.86740112 155.42623901 C-6.44594405 155.42691877 -8.0244898 155.42507872 -9.60302734 155.42089844 C-12.02805799 155.41553225 -14.45290469 155.42085798 -16.87792969 155.42724609 C-18.41048218 155.42658557 -19.94303456 155.42530494 -21.47558594 155.42333984 C-22.56929001 155.42637619 -22.56929001 155.42637619 -23.68508911 155.42947388 C-28.79031163 155.40548915 -28.79031163 155.40548915 -29.90527344 154.29052734 C-30.45165168 151.63669015 -30.33048445 149.94952595 -28.84667969 147.64990234 C-26.2424095 144.51630894 -23.38555099 141.7879434 -20.28027344 139.15771484 C-15.41540026 134.93619541 -10.92130103 130.37904334 -6.40527344 125.79052734 C2.54800216 116.69353946 2.54800216 116.69353946 7.09082031 112.79443359 C11.86851646 108.69330973 16.24278456 104.21293131 20.65722656 99.72802734 C25.96255381 94.33842166 31.26754117 89.11653189 37.09472656 84.29052734 C36.5234283 80.56436574 35.5213631 77.94740679 33.53222656 74.75537109 C32.99130371 73.87792236 32.45038086 73.00047363 31.89306641 72.09643555 C31.29961426 71.14986084 30.70616211 70.20328613 30.09472656 69.22802734 C28.81564542 67.15798376 27.53701994 65.08765857 26.25878906 63.01708984 C25.58106445 61.92428711 24.90333984 60.83148438 24.20507812 59.70556641 C19.85569491 52.68072859 15.58782309 45.60550933 11.31176758 38.53588867 C10.6027735 37.36421443 9.89370843 36.19258316 9.18457031 35.02099609 C8.6665258 34.16484459 8.6665258 34.16484459 8.13801575 33.29139709 C5.90221769 29.6031253 3.63401415 25.93651953 1.34863281 22.27880859 C0.50196045 20.90921997 0.50196045 20.90921997 -0.36181641 19.51196289 C-1.39832074 17.83619159 -2.44484061 16.16655463 -3.50341797 14.50463867 C-6.06496575 10.33473007 -7.75398768 7.35222848 -6.90527344 2.29052734 C-4.37849627 -0.23624982 -3.49984725 0.02960537 0 0 Z " fill="#0AA2AE" transform="translate(1435.9052734375,122.70947265625)"/>
<path d="M0 0 C0.41343129 9.49376756 -0.85372633 18.42593305 -2.56689453 27.72216797 C-2.84377416 29.26801156 -3.11972264 30.81402217 -3.39482117 32.36018372 C-3.9862365 35.67265471 -4.58414956 38.98386024 -5.18729019 42.29421616 C-6.14873159 47.5713289 -7.09534499 52.85103961 -8.04025269 58.13113403 C-9.54446112 66.52654097 -11.05855709 74.92012964 -12.5768441 83.3130008 C-15.27450886 98.22659098 -17.95690948 113.14292633 -20.63351333 128.06030953 C-21.56756633 133.26371172 -22.50630586 138.46623753 -23.44914663 143.66805422 C-24.18822349 147.74931746 -24.92323967 151.83130513 -25.65673828 155.91357422 C-25.79815129 156.69927536 -25.93956429 157.4849765 -26.08526254 158.29448676 C-27.7153602 167.37874138 -29.25466215 176.47137535 -30.65960693 185.59332275 C-30.79422628 186.46450638 -30.92884562 187.33569001 -31.06754434 188.23327315 C-31.71073908 192.40968954 -32.34248089 196.58736822 -32.95588875 200.76826286 C-33.1831272 202.27067664 -33.41053942 203.77306416 -33.63815308 205.27542114 C-33.82970411 206.57764177 -34.02125515 207.8798624 -34.21861076 209.22154427 C-36.38843253 219.71385092 -36.38843253 219.71385092 -39.85801697 222.48283386 C-42.39475903 223.09531168 -44.65878457 223.26162361 -47.27172852 223.2746582 C-48.32284317 223.28419022 -49.37395782 223.29372223 -50.45692444 223.30354309 C-51.58617844 223.30263168 -52.71543243 223.30172028 -53.87890625 223.30078125 C-55.04252182 223.30506638 -56.20613739 223.3093515 -57.40501404 223.31376648 C-59.86367136 223.31950742 -62.32234566 223.32001179 -64.78100586 223.31567383 C-68.55156209 223.31250918 -72.3213374 223.33599331 -76.09179688 223.36132812 C-78.47916567 223.36360058 -80.86653659 223.36430486 -83.25390625 223.36328125 C-84.38518448 223.372491 -85.51646271 223.38170074 -86.68202209 223.39118958 C-87.72998459 223.38496078 -88.77794708 223.37873199 -89.85766602 223.37231445 C-91.24188499 223.37325859 -91.24188499 223.37325859 -92.65406799 223.3742218 C-95 223 -95 223 -96.80162048 221.69293213 C-99.29368612 218.17242971 -98.21068691 213.47646966 -97.63232422 209.42337036 C-97.1109981 206.3884555 -96.5318858 203.36911271 -95.9375 200.34765625 C-95.71453247 199.17969009 -95.49156494 198.01172394 -95.26184082 196.80836487 C-94.77248073 194.24648395 -94.2806952 191.68520529 -93.78491211 189.12457275 C-92.41072659 182.02283455 -91.06484402 174.91570029 -89.71875 167.80859375 C-89.57371536 167.0439682 -89.42868073 166.27934265 -89.2792511 165.49154663 C-86.69885384 151.8746592 -84.2221908 138.24017598 -81.78125 124.59765625 C-81.60348022 123.60461802 -81.42571045 122.61157978 -81.24255371 121.58844948 C-79.46901151 111.67778099 -77.70198125 101.76596791 -75.94254303 91.85278606 C-75.27791528 88.11239937 -74.6103029 84.372549 -73.94212341 80.63279533 C-73.63350614 78.90105606 -73.32627916 77.16906827 -73.02064514 75.4368 C-71.47370355 66.6694511 -69.83193261 57.9356612 -67.91992188 49.23974609 C-67.76088127 48.51132318 -67.60184067 47.78290028 -67.43798065 47.03240395 C-63.78583249 30.7845717 -56.38577565 16.13485905 -42 7 C-31.69280798 1.14748113 -11.71034517 -5.85517258 0 0 Z " fill="#FFFFFF" transform="translate(964,56)"/>
<path d="M0 0 C1.37736832 -0.0080365 1.37736832 -0.0080365 2.78256226 -0.01623535 C5.39947661 -0.02785343 8.01589619 -0.02454303 10.6328125 -0.015625 C11.42211655 -0.01957275 12.21142059 -0.02352051 13.02464294 -0.02758789 C16.83988232 0.00491973 18.62361716 0.08241144 21.875 2.25 C21.70660394 10.16461464 17.29465216 14.78266344 11.9140625 20.23828125 C3.56403016 27.94473402 -5.50728666 31.00067421 -16.72192383 31.88232422 C-27.29381138 32.71846751 -34.99556083 35.15451176 -43.125 42.25 C-57.83651289 60.91990725 -60.41038299 87.25272443 -63.75 110 C-64.72909082 116.55195201 -65.71904167 123.10218441 -66.72766113 129.6496582 C-66.98946012 131.36297374 -67.24665504 133.07700007 -67.49890137 134.79174805 C-67.84629089 137.13980714 -68.21348069 139.48393058 -68.5859375 141.828125 C-68.68250641 142.51146912 -68.77907532 143.19481323 -68.87857056 143.89886475 C-69.61450582 148.354001 -70.99252478 151.00971637 -74.125 154.25 C-76.58723815 155.48111907 -78.23247906 155.39006703 -80.98608398 155.41113281 C-81.9973082 155.42074036 -83.00853241 155.4303479 -84.05039978 155.44024658 C-85.14622879 155.44449646 -86.2420578 155.44874634 -87.37109375 155.453125 C-88.49314713 155.45882507 -89.6152005 155.46452515 -90.77125549 155.47039795 C-93.14770563 155.47985588 -95.52416893 155.48638507 -97.90063477 155.49023438 C-101.54401376 155.4999507 -105.18683137 155.53097167 -108.83007812 155.5625 C-111.13541331 155.56902874 -113.44075253 155.57427972 -115.74609375 155.578125 C-116.83989853 155.5904718 -117.93370331 155.6028186 -119.06065369 155.61553955 C-120.07503006 155.61253845 -121.08940643 155.60953735 -122.13452148 155.60644531 C-123.02783676 155.61009094 -123.92115204 155.61373657 -124.84153748 155.61749268 C-127.125 155.25 -127.125 155.25 -128.94747925 153.99714661 C-130.48818544 151.71112355 -130.33390749 150.65044985 -129.95581055 147.93920898 C-129.77675674 146.6013887 -129.77675674 146.6013887 -129.59408569 145.23654175 C-129.43928741 144.25098297 -129.28448914 143.26542419 -129.125 142.25 C-128.96432037 141.2002298 -128.80364075 140.15045959 -128.63809204 139.06887817 C-128.06199076 135.44869577 -127.45143308 131.83567764 -126.83203125 128.22265625 C-126.60110656 126.8667527 -126.37028932 125.51083084 -126.13957214 124.15489197 C-125.65531359 121.31450566 -125.16824961 118.47461681 -124.67944336 115.63500977 C-124.1891163 112.78454194 -123.7034122 109.93335519 -123.22241211 107.08129883 C-112.44225813 43.17932564 -112.44225813 43.17932564 -100.125 26.25 C-99.65320312 25.59386719 -99.18140625 24.93773437 -98.6953125 24.26171875 C-87.29482808 9.73737278 -68.60975749 4.56778061 -51.125 2.25 C-34.13692755 0.26504662 -17.08218455 0.05739593 0 0 Z " fill="#FFFFFF" transform="translate(1301.125,123.75)"/>
<path d="M0 0 C1.34481445 0.01293091 1.34481445 0.01293091 2.71679688 0.02612305 C5.53437731 0.32789171 7.6807555 1.208406 10.28125 2.30078125 C10.49936456 9.60206517 9.99929493 16.32569306 8.54052734 23.4753418 C8.26237686 24.90223579 8.26237686 24.90223579 7.97860718 26.35795593 C7.36882601 29.47002485 6.74371294 32.57876223 6.1171875 35.6875 C5.68262557 37.87536767 5.2486039 40.06334271 4.81509399 42.25141907 C3.90574571 46.82782559 2.98852449 51.40256699 2.06591797 55.97631836 C0.89307146 61.79483323 -0.25805957 67.61739534 -1.40293312 73.44147015 C-2.2942034 77.96056213 -3.19823878 82.47703203 -4.10584641 86.99286842 C-4.53489239 89.13632226 -4.95987278 91.28059457 -5.3804512 93.42572594 C-8.57144869 109.65236946 -12.12053798 125.48677997 -21.71875 139.30078125 C-22.440625 140.35265625 -23.1625 141.40453125 -23.90625 142.48828125 C-32.65887878 151.24091003 -42.98276826 155.30772833 -55.26953125 155.6640625 C-57.52350068 155.66275433 -59.77751307 155.64568115 -62.03125 155.61328125 C-63.74151367 155.61811523 -63.74151367 155.61811523 -65.48632812 155.62304688 C-71.05014157 155.58731894 -75.45796748 155.26192446 -80.71875 153.30078125 C-82.0771361 147.80310571 -81.26061315 143.38959654 -80.16748047 137.95678711 C-79.99034012 137.03379318 -79.81319977 136.11079926 -79.63069153 135.15983582 C-79.04256383 132.10970353 -78.43950223 129.06273702 -77.8359375 126.015625 C-77.41971802 123.87747683 -77.00429525 121.73917343 -76.58963013 119.60072327 C-75.71654465 115.1097338 -74.83655345 110.62017304 -73.95117188 106.1315918 C-72.82842075 100.43882737 -71.71835916 94.74369005 -70.61309624 89.04750729 C-69.75364485 84.62207506 -68.88936971 80.19759583 -68.02353287 75.77340889 C-67.61362634 73.67810027 -67.20464555 71.58261029 -66.79668808 69.48692131 C-65.48223526 62.74863401 -64.13039759 56.01940984 -62.71875 49.30078125 C-62.51778969 48.34333637 -62.31682938 47.38589149 -62.10977936 46.39943314 C-61.50463049 43.56465086 -60.87609617 40.73615172 -60.23876953 37.90844727 C-60.06026899 37.07181769 -59.88176846 36.23518812 -59.69785881 35.37320614 C-57.05761748 24.00492626 -50.8383713 14.3006636 -40.89282227 8.04711914 C-27.77986343 0.32953162 -14.93742084 -0.14434615 0 0 Z " fill="#FFFFFF" transform="translate(1396.71875,122.69921875)"/>
<path d="M0 0 C0.78568359 -0.00386719 1.57136719 -0.00773437 2.38085938 -0.01171875 C5.81876489 -0.00596493 8.98042008 0.11088496 12.37890625 0.6953125 C15.14801774 1.1386928 16.41065924 0.81350659 19.0625 0.125 C21.88845087 -0.02092795 24.67381409 -0.10569215 27.5 -0.125 C28.25087891 -0.145625 29.00175781 -0.16625 29.77539062 -0.1875 C34.39899717 -0.22003197 37.25519658 0.22000549 41.0625 3.125 C42.64647659 4.70897659 42.23269129 6.30525597 42.25 8.5 C42.1239083 23.0635917 42.1239083 23.0635917 39.0625 26.125 C37.56511876 26.2229057 36.06307108 26.25474864 34.5625 26.25 C33.7478125 26.25257813 32.933125 26.25515625 32.09375 26.2578125 C30.0625 26.125 30.0625 26.125 29.0625 25.125 C29.0459089 23.70655387 29.0991946 22.28712393 29.18359375 20.87109375 C29.23193359 20.01708984 29.28027344 19.16308594 29.33007812 18.28320312 C29.38615234 17.38537109 29.44222656 16.48753906 29.5 15.5625 C29.55220703 14.66080078 29.60441406 13.75910156 29.65820312 12.83007812 C29.78830249 10.5947345 29.92327936 8.3597911 30.0625 6.125 C26.08053543 5.07095055 23.08054691 5.28401344 19.0625 6.125 C18.86914062 7.40117187 18.67578125 8.67734375 18.4765625 9.9921875 C18.21396996 11.66152576 17.95092569 13.33079301 17.6875 15 C17.49800781 16.26263672 17.49800781 16.26263672 17.3046875 17.55078125 C17.17578125 18.35644531 17.046875 19.16210938 16.9140625 19.9921875 C16.79885254 20.73581543 16.68364258 21.47944336 16.56494141 22.24560547 C16.0625 24.125 16.0625 24.125 14.0625 26.125 C11.8984375 26.3203125 11.8984375 26.3203125 9.4375 26.25 C8.62023437 26.23195313 7.80296875 26.21390625 6.9609375 26.1953125 C6.33445312 26.17210937 5.70796875 26.14890625 5.0625 26.125 C4.95205039 19.38757354 5.36117087 12.82519789 6.0625 6.125 C1.99105518 5.3494867 -1.79869568 5.07862684 -5.9375 5.125 C-6.05867187 6.22199219 -6.17984375 7.31898438 -6.3046875 8.44921875 C-6.47359363 9.90368823 -6.64288481 11.35811304 -6.8125 12.8125 C-6.93044922 13.8943457 -6.93044922 13.8943457 -7.05078125 14.99804688 C-7.5271051 19.01015932 -8.20050142 22.42475512 -9.9375 26.125 C-11.41656892 26.15189216 -12.89577483 26.17134621 -14.375 26.1875 C-15.61056641 26.20490234 -15.61056641 26.20490234 -16.87109375 26.22265625 C-18.9375 26.125 -18.9375 26.125 -19.9375 25.125 C-19.76567448 17.96119774 -19.08763734 9.97403298 -16.9375 3.125 C-11.62064085 -0.41957277 -6.18675482 -0.03030247 0 0 Z " fill="#4FBB98" transform="translate(747.9375,307.875)"/>
<path d="M0 0 C1.37285156 0.00193359 1.37285156 0.00193359 2.7734375 0.00390625 C7.68500544 0.06778502 11.77330593 0.46399748 16.375 2.375 C16.68132548 8.80783498 16.1626118 14.85228458 15.125 21.1875 C14.96100708 22.28082642 14.96100708 22.28082642 14.79370117 23.39624023 C13.97480051 28.07252329 12.81579677 31.07451941 9.375 34.375 C5.86059818 36.0732195 3.06578493 36.62368818 -0.8203125 36.60546875 C-1.78324219 36.60353516 -2.74617188 36.60160156 -3.73828125 36.59960938 C-4.73214844 36.58736328 -5.72601562 36.57511719 -6.75 36.5625 C-7.75160156 36.56185547 -8.75320313 36.56121094 -9.78515625 36.56054688 C-17.20277256 36.51574248 -17.20277256 36.51574248 -20.625 35.375 C-20.295 33.725 -19.965 32.075 -19.625 30.375 C-12.695 30.375 -5.765 30.375 1.375 30.375 C1.705 28.725 2.035 27.075 2.375 25.375 C1.27800781 25.39820313 0.18101563 25.42140625 -0.94921875 25.4453125 C-2.403639 25.46407921 -3.85806664 25.48227844 -5.3125 25.5 C-6.03373047 25.51675781 -6.75496094 25.53351563 -7.49804688 25.55078125 C-12.63331065 25.59767864 -16.29424319 25.14596805 -20.4140625 22.015625 C-22.75655205 18.84192948 -22.06224612 15.12907027 -21.625 11.375 C-20.70766814 7.87767227 -20.0257314 5.4204356 -17.05322266 3.2019043 C-11.31966743 0.15877799 -6.41690575 -0.17318354 0 0 Z M-6.5625 5.1875 C-9.76295381 8.58192071 -10.49613004 12.76600387 -10.625 17.375 C-8.84710149 20.80073253 -8.84710149 20.80073253 -4.75 21.1875 C-2.40000415 21.37481851 -0.57823643 21.36638566 1.75 20.9375 C5.20763479 17.61285116 5.33742685 12.42704812 5.5 7.875 C5.45875 7.05 5.4175 6.225 5.375 5.375 C1.18772492 4.6178239 -2.41731092 4.04095834 -6.5625 5.1875 Z " fill="#4EBB98" transform="translate(1082.625,307.625)"/>
<path d="M0 0 C0.495 0.495 0.495 0.495 1 1 C0.94386317 8.38199275 -0.33358515 15.77638533 -1.4375 23.0625 C-1.55963867 23.89571777 -1.68177734 24.72893555 -1.80761719 25.58740234 C-1.93168945 26.37453613 -2.05576172 27.16166992 -2.18359375 27.97265625 C-2.29243896 28.67656494 -2.40128418 29.38047363 -2.51342773 30.10571289 C-3 32 -3 32 -5 35 C-14.50218351 37.81156379 -26.57778681 38.60317764 -36 35 C-38.76103707 32.81021198 -39.00216551 31.9910286 -39.875 28.375 C-40.30583258 23.51018217 -39.22336458 19.32746822 -37 15 C-33.62646135 11.53996036 -30.7641829 10.15576164 -25.98535156 9.88647461 C-25.2940918 9.89171143 -24.60283203 9.89694824 -23.890625 9.90234375 C-23.13652344 9.90556641 -22.38242187 9.90878906 -21.60546875 9.91210938 C-20.82816406 9.92048828 -20.05085937 9.92886719 -19.25 9.9375 C-18.45722656 9.94201172 -17.66445313 9.94652344 -16.84765625 9.95117188 C-14.89840492 9.96291435 -12.94919262 9.98084854 -11 10 C-10.95101562 9.36191406 -10.90203125 8.72382813 -10.8515625 8.06640625 C-10.77679687 7.24011719 -10.70203125 6.41382813 -10.625 5.5625 C-10.55539062 4.73878906 -10.48578125 3.91507812 -10.4140625 3.06640625 C-10.27742187 2.38449219 -10.14078125 1.70257813 -10 1 C-6.74696956 -0.62651522 -3.60774398 -0.11453156 0 0 Z M-26 17 C-28.5188258 21.198043 -28.31181078 25.2448856 -28 30 C-26.19519984 32.22713126 -26.19519984 32.22713126 -23.6875 32.23046875 C-22.800625 32.21628906 -21.91375 32.20210938 -21 32.1875 C-20.113125 32.18105469 -19.22625 32.17460937 -18.3125 32.16796875 C-15.97393655 32.14581927 -15.97393655 32.14581927 -14 31 C-13.52402634 28.29400158 -13.15906371 25.66404596 -12.875 22.9375 C-12.74544922 21.79958008 -12.74544922 21.79958008 -12.61328125 20.63867188 C-12.40060483 18.76003014 -12.19924541 16.88011364 -12 15 C-19.5159871 13.52186504 -19.5159871 13.52186504 -26 17 Z " fill="#4EBB98" transform="translate(971,298)"/>
<path d="M0 0 C0.83789062 -0.020625 1.67578125 -0.04125 2.5390625 -0.0625 C7.65574444 -0.09468039 11.20978941 0.36659717 15.625 3.25 C17.66920056 6.44961827 17.62977168 8.17842479 17.375 12 C17.1275 13.0725 16.88 14.145 16.625 15.25 C13.96321779 16.5808911 11.93760604 16.36268993 8.9609375 16.34765625 C7.83945313 16.34443359 6.71796875 16.34121094 5.5625 16.33789062 C4.386875 16.32951172 3.21125 16.32113281 2 16.3125 C0.81664062 16.30798828 -0.36671875 16.30347656 -1.5859375 16.29882812 C-4.51567507 16.28701467 -7.44531272 16.27054258 -10.375 16.25 C-9.715 17.57 -9.055 18.89 -8.375 20.25 C-1.445 20.58 5.485 20.91 12.625 21.25 C12.13 23.725 12.13 23.725 11.625 26.25 C-11.3017562 28.23895658 -11.3017562 28.23895658 -18.609375 23.93359375 C-21.28315683 21.3840363 -21.23472932 19.22716337 -21.47265625 15.6640625 C-21.25820407 10.36280455 -19.67888022 6.55388022 -15.9375 2.8125 C-10.8758148 -0.27389341 -5.77083505 0.03518802 0 0 Z M-7.375 6.25 C-7.705 7.9 -8.035 9.55 -8.375 11.25 C-3.755 11.25 0.865 11.25 5.625 11.25 C5.625 9.6 5.625 7.95 5.625 6.25 C1.26018187 3.66344111 -3.14054348 3.07415761 -7.375 6.25 Z " fill="#4FBB98" transform="translate(1403.375,307.75)"/>
<path d="M0 0 C1.15822266 -0.01740234 1.15822266 -0.01740234 2.33984375 -0.03515625 C7.23192558 -0.01015413 10.65978961 0.64600361 14.875 3.375 C17.59786806 7.45930208 17.26024534 9.52090877 16.875 14.375 C13.47602327 16.64098448 12.31180827 16.61242654 8.33203125 16.5703125 C6.72231445 16.56064453 6.72231445 16.56064453 5.08007812 16.55078125 C3.40075195 16.52564453 3.40075195 16.52564453 1.6875 16.5 C0.55634766 16.49097656 -0.57480469 16.48195313 -1.74023438 16.47265625 C-4.53536828 16.44906862 -7.33007845 16.416153 -10.125 16.375 C-9.465 17.695 -8.805 19.015 -8.125 20.375 C-1.195 20.705 5.735 21.035 12.875 21.375 C11.875 25.375 11.875 25.375 10.875 26.375 C-10.92854534 28.83348632 -10.92854534 28.83348632 -19.8125 23.875 C-22.30357239 19.1301002 -21.86668961 14.13315823 -20.5 9.05078125 C-18.7632208 4.85614933 -17.83594835 3.71188729 -13.5390625 1.67578125 C-8.99990945 0.13059251 -4.76117455 -0.07226066 0 0 Z M-8.125 7.375 C-8.455 8.695 -8.785 10.015 -9.125 11.375 C-4.505 11.375 0.115 11.375 4.875 11.375 C5.205 10.055 5.535 8.735 5.875 7.375 C3.71342041 5.45359592 2.32640831 4.44444743 -0.5625 4 C-3.74936801 4.46637093 -5.58652251 5.40062862 -8.125 7.375 Z " fill="#4FBB98" transform="translate(1155.125,307.625)"/>
<path d="M0 0 C0.82435547 -0.01160156 1.64871094 -0.02320313 2.49804688 -0.03515625 C7.53360121 -0.01100491 11.10934739 0.53402464 15.4375 3.375 C17.90074069 7.06986103 17.82741688 9.00793092 17.4375 13.375 C16.2644043 15.07543945 16.2644043 15.07543945 14.4375 16.375 C11.89379883 16.71557617 11.89379883 16.71557617 8.89453125 16.66796875 C7.28481445 16.6534668 7.28481445 16.6534668 5.64257812 16.63867188 C4.52302734 16.61353516 3.40347656 16.58839844 2.25 16.5625 C1.11884766 16.54896484 -0.01230469 16.53542969 -1.17773438 16.52148438 C-3.97313317 16.48609958 -6.76757892 16.43672948 -9.5625 16.375 C-9.5625 17.695 -9.5625 19.015 -9.5625 20.375 C-2.3025 20.705 4.9575 21.035 12.4375 21.375 C11.9425 23.85 11.9425 23.85 11.4375 26.375 C-11.04629457 28.32552849 -11.04629457 28.32552849 -19.25 23.9375 C-21.7522692 19.05211728 -21.48416437 13.40176762 -19.90234375 8.20703125 C-17.97215176 4.28815659 -15.6109452 2.54923189 -11.63354492 0.96386719 C-7.78713994 -0.12979411 -3.97178318 -0.05616033 0 0 Z M-7.5625 7.375 C-7.8925 8.695 -8.2225 10.015 -8.5625 11.375 C-3.9425 11.375 0.6775 11.375 5.4375 11.375 C5.7675 10.055 6.0975 8.735 6.4375 7.375 C4.27592041 5.45359592 2.88890831 4.44444743 0 4 C-3.18686801 4.46637093 -5.02402251 5.40062862 -7.5625 7.375 Z " fill="#4FBB98" transform="translate(1299.5625,307.625)"/>
<path d="M0 0 C0.79857422 -0.01224609 1.59714844 -0.02449219 2.41992188 -0.03710938 C7.64400568 -0.05009384 11.51192468 0.34511045 15.86328125 3.48828125 C17.52988129 5.84975036 17.36129268 7.51848784 17.25 10.375 C17.20939453 11.72658203 17.20939453 11.72658203 17.16796875 13.10546875 C17.13316406 13.79253906 17.09835937 14.47960937 17.0625 15.1875 C13.9440675 16.2269775 11.78774414 16.30244838 8.51953125 16.28515625 C7.44638672 16.28193359 6.37324219 16.27871094 5.26757812 16.27539062 C4.14802734 16.26701172 3.02847656 16.25863281 1.875 16.25 C0.74384766 16.24548828 -0.38730469 16.24097656 -1.55273438 16.23632812 C-4.34770927 16.22453498 -7.1425782 16.2080765 -9.9375 16.1875 C-9.2775 17.5075 -8.6175 18.8275 -7.9375 20.1875 C-1.0075 20.5175 5.9225 20.8475 13.0625 21.1875 C13.0625 22.5075 13.0625 23.8275 13.0625 25.1875 C6.15774293 28.63987854 -6.57529748 27.73118762 -13.9375 26.1875 C-16.94347041 24.72928457 -19.40146829 23.25956343 -20.9375 20.1875 C-21.33395992 14.33971613 -20.8644918 10.43589909 -17.9375 5.1875 C-12.42509107 -0.18356511 -7.28679923 0.00585285 0 0 Z M-7.9375 7.1875 C-7.9375 8.5075 -7.9375 9.8275 -7.9375 11.1875 C-3.3175 11.1875 1.3025 11.1875 6.0625 11.1875 C6.0625 9.5375 6.0625 7.8875 6.0625 6.1875 C0.87865864 3.11559401 -3.18871797 3.38847438 -7.9375 7.1875 Z " fill="#4FBB98" transform="translate(1549.9375,307.8125)"/>
<path d="M0 0 C0.79019531 -0.020625 1.58039062 -0.04125 2.39453125 -0.0625 C7.40508767 -0.09584813 10.76943566 0.50612766 15.125 3.25 C17.69732706 5.82232706 17.42286466 6.92897692 17.4375 10.5 C17.32790104 16.08224012 16.37457509 19.82738067 12.5 24 C4.01752056 28.46446287 -6.84618098 28.33427656 -15.95703125 25.99609375 C-19.1577365 24.75101289 -20.35396974 23.29206053 -21.875 20.25 C-22.53115001 14.43838565 -21.85671285 10.41830226 -18.875 5.25 C-12.73333926 0.28440196 -7.56398899 0.04887877 0 0 Z M-7.875 7.25 C-9.69604305 10.18635315 -10.14797016 12.44096127 -10.125 15.875 C-10.13015625 16.65101563 -10.1353125 17.42703125 -10.140625 18.2265625 C-10.05415354 20.47688411 -10.05415354 20.47688411 -7.875 22.25 C-4.81527982 22.81114559 -1.94052205 22.7572839 1.125 22.25 C4.82280487 19.47664635 5.45659597 16.52104188 6.125 12.125 C6.542267 9.59751828 6.542267 9.59751828 6.125 7.25 C3.94533109 5.14867014 2.68933898 4.33682138 -0.3125 3.875 C-3.49791622 4.34115847 -5.31285238 5.31107748 -7.875 7.25 Z " fill="#4EBB98" transform="translate(824.875,307.75)"/>
<path d="M0 0 C0.93714844 -0.01224609 1.87429688 -0.02449219 2.83984375 -0.03710938 C12.40012329 -0.0574504 12.40012329 -0.0574504 15.5 2.1875 C17.96739063 7.67519792 17.43970746 11.91977263 16.1875 17.5625 C16.04376953 18.28566406 15.90003906 19.00882812 15.75195312 19.75390625 C14.6707497 25.0167503 14.6707497 25.0167503 13.5 26.1875 C11.98071962 26.25929964 10.45832518 26.27142007 8.9375 26.25 C8.11121094 26.24097656 7.28492188 26.23195313 6.43359375 26.22265625 C5.47646484 26.20525391 5.47646484 26.20525391 4.5 26.1875 C3.36371494 21.98166711 3.72255321 18.76138023 4.5 14.5 C5.52951699 10.21304878 5.52951699 10.21304878 4.5 6.1875 C0.45661818 5.17665454 -2.47818379 5.27780348 -6.5 6.1875 C-6.69335938 7.46367187 -6.88671875 8.73984375 -7.0859375 10.0546875 C-7.34853004 11.72402576 -7.61157431 13.39329301 -7.875 15.0625 C-8.00132813 15.90425781 -8.12765625 16.74601562 -8.2578125 17.61328125 C-8.38671875 18.41894531 -8.515625 19.22460938 -8.6484375 20.0546875 C-8.82125244 21.17012939 -8.82125244 21.17012939 -8.99755859 22.30810547 C-9.5 24.1875 -9.5 24.1875 -11.5 26.1875 C-13.6640625 26.3828125 -13.6640625 26.3828125 -16.125 26.3125 C-16.94226562 26.29445313 -17.75953125 26.27640625 -18.6015625 26.2578125 C-19.22804688 26.23460937 -19.85453125 26.21140625 -20.5 26.1875 C-21.22269845 8.03973898 -21.22269845 8.03973898 -17.23828125 2.40234375 C-12.47491514 -0.92666043 -5.55619764 0.00382132 0 0 Z " fill="#4FBB98" transform="translate(1453.5,307.8125)"/>
<path d="M0 0 C0.93714844 -0.020625 1.87429688 -0.04125 2.83984375 -0.0625 C11.51813494 -0.11173853 11.51813494 -0.11173853 15.5 3.25 C18.07040953 8.39081906 16.00488912 17.08013617 14.5 22.5 C13.5 25.25 13.5 25.25 12.5 26.25 C10.98071962 26.32179964 9.45832518 26.33392007 7.9375 26.3125 C7.11121094 26.30347656 6.28492188 26.29445313 5.43359375 26.28515625 C4.47646484 26.26775391 4.47646484 26.26775391 3.5 26.25 C3.38216014 19.17960834 3.85237319 12.29294159 4.5 5.25 C0.54 5.25 -3.42 5.25 -7.5 5.25 C-7.70496094 6.68214844 -7.90992188 8.11429687 -8.12109375 9.58984375 C-8.39301133 11.45576092 -8.66515859 13.32164464 -8.9375 15.1875 C-9.07220703 16.13302734 -9.20691406 17.07855469 -9.34570312 18.05273438 C-9.47783203 18.95185547 -9.60996094 19.85097656 -9.74609375 20.77734375 C-9.86654053 21.60999756 -9.9869873 22.44265137 -10.11108398 23.30053711 C-10.5 25.25 -10.5 25.25 -11.5 26.25 C-12.99738124 26.3479057 -14.49942892 26.37974864 -16 26.375 C-16.8146875 26.37757813 -17.629375 26.38015625 -18.46875 26.3828125 C-20.5 26.25 -20.5 26.25 -21.5 25.25 C-21.35605365 17.80908105 -20.60805655 10.39396941 -18.5 3.25 C-12.84096503 -0.52268998 -6.58918332 0.0362541 0 0 Z " fill="#4FBB98" transform="translate(1031.5,307.75)"/>
<path d="M0 0 C2.6875 2.1875 2.6875 2.1875 5 5 C5.928125 5.928125 6.85625 6.85625 7.8125 7.8125 C8.8953125 8.8953125 8.8953125 8.8953125 10 10 C10.53109375 9.52949219 11.0621875 9.05898438 11.609375 8.57421875 C12.31578125 7.95160156 13.0221875 7.32898438 13.75 6.6875 C14.44609375 6.07261719 15.1421875 5.45773437 15.859375 4.82421875 C21.47862886 0.03554803 21.47862886 0.03554803 24.75 -0.1875 C25.86375 -0.0946875 25.86375 -0.0946875 27 0 C27 4 27 4 25.03125 6.359375 C23.77828125 7.54273438 23.77828125 7.54273438 22.5 8.75 C21.24703125 9.94882812 21.24703125 9.94882812 19.96875 11.171875 C19.3190625 11.77515625 18.669375 12.3784375 18 13 C19.01203208 15.67088466 19.84811514 17.80722307 21.625 20.0625 C23 22 23 22 23 26 C18.87121763 26.54914839 15.10708125 26.78254475 11 26 C7.9455896 23.40147175 5.96019415 20.4786544 4 17 C0.13320779 17.54015058 -1.3061508 19.16820265 -3.8125 22.0625 C-7.41126912 25.85032266 -7.41126912 25.85032266 -10.07421875 26.52734375 C-12 26.5 -12 26.5 -15 26 C-14.48223379 21.89552608 -12.35372556 20.04300477 -9.4375 17.25 C-8.61121094 16.45078125 -7.78492188 15.6515625 -6.93359375 14.828125 C-6.29550781 14.22484375 -5.65742187 13.6215625 -5 13 C-5.928125 11.4221875 -5.928125 11.4221875 -6.875 9.8125 C-8.51579108 6.94984323 -9.86984453 4.10792754 -11 1 C-7.28051855 -0.23982715 -3.85888771 -0.67473675 0 0 Z " fill="#4EBB98" transform="translate(1196,308)"/>
<path d="M0 0 C0.66 0.33 1.32 0.66 2 1 C1.89300781 2.27617187 1.78601563 3.55234375 1.67578125 4.8671875 C1.55387254 6.53639901 1.43282323 8.20567345 1.3125 9.875 C1.23966797 10.71675781 1.16683594 11.55851562 1.09179688 12.42578125 C1.00961914 13.63427734 1.00961914 13.63427734 0.92578125 14.8671875 C0.86817627 15.61081543 0.81057129 16.35444336 0.7512207 17.12060547 C0.83331787 17.74080566 0.91541504 18.36100586 1 19 C4.08520003 21.05680002 4.91273504 21.29466814 8.4375 21.3125 C9.58025391 21.33763672 9.58025391 21.33763672 10.74609375 21.36328125 C13.78573021 20.87335718 14.91804737 20.30931791 17 18 C17.91907263 15.15053459 18.33722512 12.27233873 18.75 9.3125 C18.93755859 8.11657227 18.93755859 8.11657227 19.12890625 6.89648438 C19.43455053 4.93330763 19.71931793 2.96690085 20 1 C21.98 0.67 23.96 0.34 26 0 C27.25097875 4.45554074 26.73274745 7.98553974 25.875 12.5 C25.64554688 13.7890625 25.41609375 15.078125 25.1796875 16.40625 C23.8260458 20.52992669 22.3701961 22.31080223 19 25 C10.97621286 28.47014152 1.08871323 27.74193669 -7 25 C-9.5 23.375 -9.5 23.375 -11 21 C-11.65761528 14.75265488 -10.8888803 7.99997271 -9 2 C-5.54337669 -0.30441554 -4.05142119 -0.25860135 0 0 Z " fill="#4FBB98" transform="translate(866,308)"/>
<path d="M0 0 C0.94939453 0.00064453 1.89878906 0.00128906 2.87695312 0.00195312 C9.88986404 0.04662135 9.88986404 0.04662135 13.3125 1.1875 C12.9825 2.8375 12.6525 4.4875 12.3125 6.1875 C10.54132813 6.15269531 10.54132813 6.15269531 8.734375 6.1171875 C7.17708967 6.09842503 5.61979748 6.08022534 4.0625 6.0625 C2.89654297 6.03736328 2.89654297 6.03736328 1.70703125 6.01171875 C-3.80156781 5.88155836 -3.80156781 5.88155836 -8.6875 8.1875 C-9.8773306 10.5671612 -9.82099966 12.10235735 -9.8125 14.75 C-9.81507812 15.55566406 -9.81765625 16.36132812 -9.8203125 17.19140625 C-9.90761391 19.18692021 -9.90761391 19.18692021 -8.6875 20.1875 C-7.27422053 20.34370555 -5.8539541 20.43806173 -4.43359375 20.50390625 C-3.15258789 20.56674805 -3.15258789 20.56674805 -1.84570312 20.63085938 C-0.94787109 20.67017578 -0.05003906 20.70949219 0.875 20.75 C2.22754883 20.81477539 2.22754883 20.81477539 3.60742188 20.88085938 C5.84228485 20.98728142 8.07726308 21.08929988 10.3125 21.1875 C9.6525 22.8375 8.9925 24.4875 8.3125 26.1875 C-14.98192251 28.18725321 -14.98192251 28.18725321 -21.3125 23.0625 C-23.40645492 18.68423063 -23.45444772 14.79408584 -22.109375 10.22265625 C-20.30510606 5.68319238 -18.71250575 3.07019482 -14.25 1.125 C-9.45079247 -0.13794935 -4.93863087 -0.06449071 0 0 Z " fill="#4FBB98" transform="translate(1255.6875,307.8125)"/>
<path d="M0 0 C1.423125 0.00773437 1.423125 0.00773437 2.875 0.015625 C9.81441327 0.09470663 9.81441327 0.09470663 12.125 1.25 C11.795 2.9 11.465 4.55 11.125 6.25 C9.94421875 6.21519531 8.7634375 6.18039062 7.546875 6.14453125 C5.98959758 6.11638768 4.43230475 6.08908813 2.875 6.0625 C2.09769531 6.03736328 1.32039063 6.01222656 0.51953125 5.98632812 C-2.90369902 5.94244056 -5.26694879 5.95167487 -8.375 7.4765625 C-10.22757075 9.66684147 -10.45638577 10.96947674 -10.625 13.8125 C-10.68171875 14.59753906 -10.7384375 15.38257813 -10.796875 16.19140625 C-10.84818968 17.54354809 -10.875 18.8968848 -10.875 20.25 C-4.275 20.58 2.325 20.91 9.125 21.25 C8.795 22.9 8.465 24.55 8.125 26.25 C-14.99297315 28.23460558 -14.99297315 28.23460558 -21.10546875 23.53515625 C-23.93147202 19.88568183 -23.42382015 16.62754186 -23.25 12.16796875 C-22.73267363 8.14252294 -21.78956635 6.09170219 -18.875 3.25 C-12.44795497 0.22423386 -7.03907251 -0.15685955 0 0 Z " fill="#4FBB98" transform="translate(1506.875,307.75)"/>
<path d="M0 0 C0.66 0.33 1.32 0.66 2 1 C0.99521249 9.67663572 -0.14779863 18.31728772 -1.5625 26.9375 C-1.68923096 27.72431152 -1.81596191 28.51112305 -1.9465332 29.32177734 C-2.87837323 34.87837323 -2.87837323 34.87837323 -4 36 C-5.49738124 36.0979057 -6.99942892 36.12974864 -8.5 36.125 C-9.3146875 36.12757813 -10.129375 36.13015625 -10.96875 36.1328125 C-13 36 -13 36 -14 35 C-13.94378425 27.60762831 -12.6429668 20.22564302 -11.5 12.9375 C-11.36948242 12.10428223 -11.23896484 11.27106445 -11.10449219 10.41259766 C-10.57652504 7.1478894 -10.04881588 4.14644764 -9 1 C-6.01405576 -0.49297212 -3.29146376 -0.11755228 0 0 Z " fill="#4EBB98" transform="translate(1343,298)"/>
<path d="M0 0 C2.59110361 3.82033229 1.87863579 6.72019939 1.13671875 11.13671875 C1.0252803 11.81676468 0.91384186 12.49681061 0.79902649 13.19746399 C0.5619025 14.62980479 0.31861791 16.06113759 0.06958008 17.49145508 C-0.31262938 19.68824361 -0.67646894 21.88746844 -1.03710938 24.08789062 C-2.83395472 34.83395472 -2.83395472 34.83395472 -4 36 C-5.49738124 36.0979057 -6.99942892 36.12974864 -8.5 36.125 C-9.3146875 36.12757813 -10.129375 36.13015625 -10.96875 36.1328125 C-13 36 -13 36 -14 35 C-13.94686748 27.2692184 -12.74485065 19.51179968 -11.625 11.875 C-11.51124023 11.04564941 -11.39748047 10.21629883 -11.28027344 9.36181641 C-11.15942383 8.57983887 -11.03857422 7.79786133 -10.9140625 6.9921875 C-10.8104541 6.29464355 -10.7068457 5.59709961 -10.60009766 4.87841797 C-8.83893863 -0.63433938 -5.18901919 -0.29371807 0 0 Z " fill="#4EBB98" transform="translate(919,298)"/>
<path d="M0 0 C2.7427508 -0.47114738 5.19558897 -0.17805784 8 0 C9 1 9 1 9.18359375 4.78515625 C9.11603412 10.76951677 8.09579386 16.55594845 7.0625 22.4375 C6.88009766 23.52482422 6.69769531 24.61214844 6.50976562 25.73242188 C5.14437973 33.71124054 5.14437973 33.71124054 4 36 C2.52093108 36.02689216 1.04172517 36.04634621 -0.4375 36.0625 C-1.26121094 36.07410156 -2.08492187 36.08570313 -2.93359375 36.09765625 C-5 36 -5 36 -6 35 C-5.94678109 27.25664876 -4.72371456 19.5160246 -3.5625 11.875 C-3.37929199 10.63097412 -3.37929199 10.63097412 -3.19238281 9.36181641 C-3.06831055 8.57983887 -2.94423828 7.79786133 -2.81640625 6.9921875 C-2.70756104 6.29464355 -2.59871582 5.59709961 -2.48657227 4.87841797 C-2 3 -2 3 0 0 Z " fill="#4EBB98" transform="translate(1362,298)"/>
<path d="M0 0 C0.66 0.33 1.32 0.66 2 1 C0.64974619 23.35025381 0.64974619 23.35025381 -2 26 C-3.49738124 26.0979057 -4.99942892 26.12974864 -6.5 26.125 C-7.3146875 26.12757813 -8.129375 26.13015625 -8.96875 26.1328125 C-11 26 -11 26 -12 25 C-11.83725841 17.51388702 -11.28391011 9.15967326 -9 2 C-5.54337669 -0.30441554 -4.05142119 -0.25860135 0 0 Z " fill="#4EBB98" transform="translate(995,308)"/>
<path d="M0 0 C1.50046875 0.00386719 1.50046875 0.00386719 3.03125 0.0078125 C4.0315625 0.00523437 5.031875 0.00265625 6.0625 0 C8.53125 0.1328125 8.53125 0.1328125 9.53125 1.1328125 C9.57188832 2.79898365 9.573971 4.46669345 9.53125 6.1328125 C5.88727463 8.46495674 2.77799388 8.36445308 -1.46875 8.1328125 C-2.45875 7.8028125 -3.44875 7.4728125 -4.46875 7.1328125 C-3.43393021 0.18473675 -3.43393021 0.18473675 0 0 Z " fill="#51BA98" transform="translate(990.46875,297.8671875)"/>
</svg>
