<?xml version="1.0" encoding="UTF-8"?>
<svg version="1.1" xmlns="http://www.w3.org/2000/svg" width="520" height="404">
<path d="M0 0 C11.67924201 9.92833808 22.28283601 21.1501757 33.09752679 31.99613285 C35.66744946 34.57239268 38.24028702 37.14573848 40.81278992 39.71942139 C45.66282229 44.572537 50.51030453 49.42819121 55.35682887 54.28480983 C60.88342841 59.82266501 66.4129363 65.35761244 71.9426657 70.89234209 C83.29830302 82.25837554 94.65036268 93.62797512 106 105 C101.61618886 110.24471606 97.00291191 115.13522023 92.15869141 119.95483398 C91.39703674 120.71663467 90.63538208 121.47843536 89.85064697 122.26332092 C87.35331728 124.75995857 84.85247313 127.25304362 82.3515625 129.74609375 C80.61114002 131.48464954 78.87093939 133.22342744 77.13095093 134.9624176 C72.56623679 139.52332637 67.99852673 144.08122314 63.43017578 148.63848877 C58.76282722 153.29558054 54.09833276 157.95552903 49.43359375 162.61523438 C40.29184591 171.74627983 31.14702563 180.87424173 22 190 C16.1961332 185.17445405 10.84272872 179.99693407 5.50390625 174.66503906 C4.57778534 173.74388306 3.65166443 172.82272705 2.69747925 171.87365723 C0.17433447 169.36353338 -2.34555682 166.85016931 -4.86442947 164.33575916 C-6.44285758 162.76027742 -8.02186453 161.18537801 -9.6010437 159.61064911 C-14.55557927 154.66975883 -19.50812919 149.72689108 -24.4577837 144.781111 C-30.14636019 139.09701368 -35.84141394 133.4195139 -41.5422163 127.747679 C-45.96645492 123.34513343 -50.38483749 118.93676547 -54.79890919 114.52402663 C-57.42736022 111.8966178 -60.05812474 109.27163598 -62.69503784 106.65271759 C-65.63977031 103.72769466 -68.57224951 100.79066731 -71.50390625 97.85253906 C-72.3654129 97.00024719 -73.22691956 96.14795532 -74.11453247 95.26983643 C-80.96008794 88.37705491 -87.21285961 81.00765653 -90.8125 71.875 C-91.19019531 70.94429688 -91.56789063 70.01359375 -91.95703125 69.0546875 C-94.32309419 62.12487019 -95.36437821 56.03740618 -95.3125 48.75 C-95.30686035 47.915896 -95.3012207 47.08179199 -95.29541016 46.22241211 C-94.9476582 28.43025127 -87.54056547 15.10813218 -75 3 C-54.49570779 -15.92703896 -22.09925395 -15.75289259 0 0 Z " fill="#03A1B6" transform="translate(157,46)"/>
<path d="M0 0 C13.15732127 10.98292416 19.94503728 26.26834708 21.50390625 43.12109375 C22.07045294 59.4676322 16.92145222 74.38324858 6.20352364 86.78229332 C3.56989342 89.5430765 0.88099892 92.24040779 -1.83764648 94.91674805 C-2.86415709 95.94212727 -3.88978159 96.96839421 -4.91459656 97.99546814 C-7.66967867 100.75168696 -10.43682031 103.4954903 -13.20647693 106.23705268 C-16.10981662 109.1152027 -19.00165647 112.00486283 -21.89479065 114.89326477 C-27.36186124 120.34795682 -32.83903725 125.79238121 -38.32001692 131.23309308 C-44.56502571 137.43322384 -50.798533 143.64486427 -57.03115165 149.85744607 C-69.84013983 162.62474609 -82.66333437 175.37768925 -95.49609375 188.12109375 C-100.70673297 183.76413476 -105.57025956 179.18523215 -110.35913086 174.37158203 C-111.11117798 173.61968094 -111.8632251 172.86777985 -112.63806152 172.09309387 C-115.10223371 169.62822975 -117.56285326 167.15985164 -120.0234375 164.69140625 C-121.73957302 162.973404 -123.45593069 161.25562363 -125.17250061 159.53805542 C-129.67422583 155.03252514 -134.17293892 150.52399904 -138.67102051 146.01483154 C-143.26778884 141.40780574 -147.86741452 136.80363462 -152.46679688 132.19921875 C-161.47935307 123.17596073 -170.48882557 114.14963027 -179.49609375 105.12109375 C-178.01430289 101.68920477 -176.07912676 99.44864957 -173.45056152 96.80813599 C-172.18074936 95.52552887 -172.18074936 95.52552887 -170.88528442 94.2170105 C-169.48897293 92.82205856 -169.48897293 92.82205856 -168.06445312 91.39892578 C-167.0750693 90.40355565 -166.08609638 89.40777695 -165.09750366 88.41162109 C-162.41184142 85.70829399 -159.71972399 83.0114856 -157.02585411 80.31633997 C-155.34049832 78.62956137 -153.65657529 76.9413661 -151.97315979 75.25265121 C-146.09231554 69.35329937 -140.20632152 63.45914254 -134.31542969 57.56982422 C-128.83843852 52.09403203 -123.37267206 46.60721299 -117.91212225 41.11502945 C-113.21426061 36.39093259 -108.50863429 31.67466468 -103.79699945 26.9643048 C-100.98740031 24.15521352 -98.18093491 21.34316401 -95.38224792 18.52319717 C-92.7448778 15.86632449 -90.09788808 13.21941202 -87.44353104 10.57951355 C-86.0193812 9.15842012 -84.60504091 7.72751667 -83.19113159 6.29623413 C-59.95363301 -16.71696479 -26.49076588 -19.94062346 0 0 Z " fill="#0BA786" transform="translate(444.49609375,47.87890625)"/>
<path d="M0 0 C0 73.26 0 146.52 0 222 C-3.7691051 220.11544745 -5.65959868 218.58770458 -8.58111572 215.65939331 C-9.49534302 214.74791534 -10.40957031 213.83643738 -11.35150146 212.89733887 C-12.35714871 211.88461387 -13.36269969 210.87179328 -14.36816406 209.85888672 C-15.4323503 208.79413624 -16.49697733 207.72982617 -17.56201172 206.66592407 C-20.45047575 203.77803402 -23.3327304 200.88401759 -26.21391773 197.98887014 C-29.22657973 194.96370845 -32.24490374 191.94420688 -35.26263428 188.92410278 C-40.97557217 183.20494789 -46.68339253 177.4807137 -52.38939643 171.75464165 C-58.88602318 165.23566277 -65.38832763 158.72235975 -71.89111757 152.20952964 C-85.26707693 138.8126633 -98.63588184 125.4086781 -112 112 C-110.48325019 108.43723838 -108.39847112 106.14709889 -105.67285156 103.41888428 C-104.30997009 102.04754333 -104.30997009 102.04754333 -102.91955566 100.64849854 C-101.91001239 99.64284366 -100.90036535 98.63729294 -99.890625 97.63183594 C-98.82913377 96.56763422 -97.76806839 95.50300758 -96.70739746 94.43798828 C-93.82784928 91.54932297 -90.94201128 88.66701901 -88.05473328 85.78608227 C-85.03642509 82.7728349 -82.02299651 79.75471407 -79.00878906 76.73736572 C-73.94825519 71.67319357 -68.88351911 66.6132528 -63.81640625 61.55566406 C-57.95159963 55.70175346 -52.09404875 49.84065664 -46.24019241 43.97579741 C-41.21793468 38.94447689 -36.19180638 33.91704793 -31.16239548 28.89287782 C-28.15668023 25.89028632 -25.15234624 22.88634631 -22.15148926 19.87889862 C-19.33248174 17.0541325 -16.50866266 14.23426807 -13.6809845 11.41818237 C-12.64158882 10.38144076 -11.60390901 9.34297575 -10.56803894 8.30271149 C-9.15901699 6.8882625 -7.74327465 5.4805174 -6.32714844 4.07318115 C-5.53516052 3.28194729 -4.74317261 2.49071342 -3.92718506 1.67550278 C-2 0 -2 0 0 0 Z " fill="#0EA979" transform="translate(471,135)"/>
<path d="M0 0 C3.74112827 1.87056414 5.63962068 3.3826705 8.54988098 6.27572632 C9.45713928 7.17300949 10.36439758 8.07029266 11.29914856 8.99476624 C12.29695661 9.99167856 13.29464866 10.988707 14.29223633 11.98583984 C15.34823171 13.03421248 16.40462818 14.08218125 17.46139526 15.129776 C20.32756765 17.97401682 23.18715236 20.82479178 26.04492021 23.6774745 C27.82957873 25.45848999 29.61552851 27.23820018 31.40192223 29.01747513 C37.63068499 35.22175481 43.85371651 41.43172403 50.07202148 47.64648438 C55.87472859 53.44554992 61.69045449 59.23133314 67.51221067 65.01126897 C72.50706833 69.97149542 77.4923222 74.94123795 82.47024363 79.91846049 C85.44495783 82.89237987 88.42355688 85.86214553 91.41202736 88.82224655 C94.21951006 91.60366918 97.01491234 94.39667797 99.80132675 97.19920158 C100.82779811 98.22749667 101.85858641 99.25150248 102.8938694 100.27092552 C104.3023972 101.65917512 105.69423428 103.06429977 107.08503723 104.4703064 C107.86981854 105.25307638 108.65459986 106.03584637 109.46316242 106.84233665 C111 109 111 109 111.00761604 110.99678612 C109.6548224 113.68623813 107.92448532 115.45018738 105.79310608 117.58111572 C104.8858931 118.49534302 103.97868011 119.40957031 103.04397583 120.35150146 C102.03084679 121.35720287 101.01756654 122.36275197 100.00415039 123.36816406 C98.9425913 124.43215102 97.88167849 125.49678311 96.82136536 126.56201172 C93.93984997 129.45293861 91.04899891 132.33436037 88.15612721 135.21391773 C85.13336011 138.22537966 82.1182985 141.24453862 79.10215759 144.26263428 C74.03724942 149.32842551 68.96639074 154.38819933 63.8918457 159.44433594 C58.01821092 165.29678582 52.15347303 171.15803468 46.29354101 177.02420259 C40.66255028 182.66087941 35.02591977 188.29188185 29.3864727 193.92009735 C26.98323863 196.31867717 24.58191122 198.71914254 22.18205452 201.12110138 C19.35905741 203.94597628 16.53114187 206.76583247 13.69927788 209.58181763 C12.65827604 210.61856209 11.61898464 211.65702715 10.58149719 212.69728851 C9.17023722 214.11174982 7.75224949 215.51948926 6.33387756 216.92681885 C5.54059083 217.71805271 4.7473041 218.50928658 3.92997837 219.32449722 C2 221 2 221 0 221 C0 148.07 0 75.14 0 0 Z " fill="#029FC3" transform="translate(57,135)"/>
<path d="M0 0 C2.87058036 1.30405409 4.94730394 2.6930997 7.18318176 4.9090271 C7.78753052 5.50340073 8.39187927 6.09777435 9.01454163 6.7101593 C9.665634 7.36058701 10.31672638 8.01101471 10.98754883 8.68115234 C11.68224274 9.36752274 12.37693665 10.05389313 13.09268188 10.76106262 C15.38627807 13.03056984 17.6721483 15.30766022 19.95703125 17.5859375 C21.54546969 19.16541231 23.13398698 20.74480782 24.72257996 22.3241272 C28.0491754 25.63423556 31.37135365 28.94871064 34.69116211 32.265625 C38.95466025 36.52372451 43.2340956 40.76541614 47.51762867 45.0033474 C50.80216801 48.25821871 54.07547033 51.52421197 57.34570885 54.79344559 C58.91936694 56.36288485 60.4971656 57.92818338 62.07908058 59.48929977 C64.28446704 61.66797272 66.47365674 63.86172778 68.65942383 66.06005859 C69.32063736 66.70643784 69.98185089 67.35281708 70.6631012 68.01878357 C71.54847565 68.91880348 71.54847565 68.91880348 72.45173645 69.83700562 C72.97104138 70.35429922 73.49034632 70.87159283 74.02538776 71.404562 C75 73 75 73 74.8359375 74.99636555 C73.89852708 77.24321752 72.88578595 78.49645656 71.17326355 80.22114563 C70.57185043 80.83390854 69.97043732 81.44667145 69.35079956 82.07800293 C68.68742584 82.73844604 68.02405212 83.39888916 67.34057617 84.0793457 C66.64459824 84.78379318 65.9486203 85.48824066 65.23155212 86.21403503 C62.92649389 88.54251209 60.6103779 90.85960039 58.29296875 93.17578125 C56.68942536 94.78642176 55.08618321 96.39736224 53.48323059 98.0085907 C50.1215269 101.38374943 46.75393088 104.75289861 43.38256836 108.1184082 C39.05433411 112.44073693 34.74464898 116.78105537 30.4396162 121.12647724 C27.1343311 124.45755348 23.81770422 127.77715156 20.49767494 131.09352684 C18.90325508 132.6896451 17.31283861 134.28977258 15.72646141 135.89388466 C13.51184769 138.13052306 11.28207164 140.3508445 9.04760742 142.56762695 C8.06165588 143.57347336 8.06165588 143.57347336 7.05578613 144.59963989 C6.44591354 145.19830368 5.83604095 145.79696747 5.20768738 146.41377258 C4.68172061 146.94045186 4.15575384 147.46713114 3.61384869 148.00977039 C2 149 2 149 0.00042057 148.83999252 C-2.25136891 147.89444819 -3.49479584 146.8749867 -5.2144165 145.14634705 C-5.82573425 144.53915329 -6.437052 143.93195953 -7.06689453 143.30636597 C-7.7257666 142.63670807 -8.38463867 141.96705017 -9.06347656 141.27709961 C-9.76631775 140.5746965 -10.46915894 139.8722934 -11.19329834 139.14860535 C-13.51625463 136.8235579 -15.82840266 134.4880622 -18.140625 132.15234375 C-19.74851133 130.53886266 -21.35706098 128.92604234 -22.96624756 127.31385803 C-27.20119814 123.06744937 -31.42706282 118.81210877 -35.65112305 114.55487061 C-39.96250389 110.21280991 -44.28238253 105.87922215 -48.6015625 101.54492188 C-57.07606563 93.03823755 -65.54099805 84.5220968 -74 76 C-72.68634063 73.09702266 -71.27927877 71.03091891 -69.02609253 68.7855835 C-68.41752411 68.17426575 -67.80895569 67.562948 -67.1819458 66.93310547 C-66.18285187 65.94479736 -66.18285187 65.94479736 -65.16357422 64.93652344 C-64.46102509 64.23368225 -63.75847595 63.53084106 -63.03463745 62.80670166 C-60.71269689 60.48615375 -58.38375372 58.1727692 -56.0546875 55.859375 C-54.44285268 54.25127053 -52.83145903 52.64272375 -51.2204895 51.03375244 C-46.98012971 46.80102735 -42.73379794 42.57434285 -38.48620605 38.34887695 C-34.15255457 34.03568729 -29.82456212 29.71682751 -25.49609375 25.3984375 C-17.00293327 16.92672409 -8.50345472 8.46137967 0 0 Z " fill="#07A49E" transform="translate(263,171)"/>
</svg>
